<svg xmlns="http://www.w3.org/2000/svg" version="1.1" xmlns:xlink="http://www.w3.org/1999/xlink" viewBox="0 0 1422 800" style="overflow: hidden; display: block;" width="1422" height="800"><defs><linearGradient id="dddraw-gradient" x1="711" y1="-400" x2="711" y2="800" spreadMethod="pad" gradientUnits="userSpaceOnUse"><stop offset="0%" stop-color="hsl(105, 69%, 40%)" stop-opacity="1"></stop><stop offset="100%" stop-color="hsl(105, 69%, 60%)" stop-opacity="1"></stop></linearGradient></defs><g id="two-0" transform="matrix(1 0 0 1 0 0)" opacity="1"></g><path d="M 593.1177085358429 195.10410044910859 Q 593.1177085358429 195.10410044910859 576.166956565721 210.50093094644268 559.216204595599 225.89776144377674 537.4722227322457 241.61859918078443 515.7282408688922 257.3394369177921 489.43484123583346 274.1888130268978 463.14144160277476 291.03818913600344 439.10919310841757 305.5113083992116 415.0769446140603 319.98442766241976 394.6069082140143 332.16830132564996 374.1368718139683 344.3521749888802 361.06773818355674 352.9402962306291 347.9986045531452 361.5284174723779 340.6548050478606 366.7743618946537 333.311005542576 372.0203063169295 330.20793342552554 376.059709892176 327.104861308475 380.09911346742246 326.24862071505 380.6036405566198 325.39238012162497 381.10816764581705 324.44027689625784 381.3931149844749 323.4881736708908 381.6780623231328 322.4955440977742 381.72686875854026 321.5029145246577 381.7756751939478 320.5274502812198 381.58550409378586 319.5519860377819 381.39533299362387 318.6503811516832 380.9772371111691 317.7487762655845 380.5591412287142 316.9734320551669 379.9374203162989 316.1980878447492 379.3156994038836 315.59406735195137 378.5264879101489 314.9900468591536 377.73727641641415 314.5924557833969 376.82644335045677 314.19486470764014 375.91561028449945 314.0268110609282 374.9360933069082 313.85875741421626 373.95657632931693 313.93000848239194 372.9653050128518 314.0012595505677 371.9740336963867 314.30767421820093 371.0286207765353 314.6140888858342 370.08320785668394 315.13785831804535 369.2386007767681 315.66162775025646 368.3939936968523 316.37231044303616 367.69928106004045 317.08299313581585 367.0045684232286 324.1219933703484 364.23641027098284 331.1609936048809 361.4682521187371 341.32702185984067 355.5245288909312 351.49305011480044 349.5808056631253 381.2282035525635 331.9022498923433 410.9633569903266 314.22369412156127 449.0529927398401 293.2526612104764 487.14262848935357 272.2816282993915 511.68024351026463 259.2524543704004 536.2178585311757 246.22328044140932 547.4954100710318 240.3559620023464 558.7729616108879 234.48864356328346 562.1315922577312 234.29684152757744 565.4902229045744 234.1050394918714 566.3215418509006 233.782583891324 567.1528607972269 233.46012829077662 568.0371926800403 233.34599711236643 568.9215245628536 233.23186593395621 569.8074719715746 233.3326924871348 570.6934193802957 233.43351904031343 571.5294910099036 233.74344328107279 572.3655626395115 234.05336752183214 573.1031659676107 234.5543766387376 573.84076929571 235.05538575564304 574.4370347822153 235.7183610752802 575.0333002687206 236.38133639491738 575.4535729355409 237.16774576055923 575.8738456023611 237.95415512620107 576.0936991823544 238.8182923885672 576.3135527623477 239.6824296509333 576.3202093551149 240.57407111173364 576.3268659478822 241.465712572534 576.119938671939 242.33303598817326 575.9130113959958 243.20035940381254 575.5045268743424 243.9929558966228 575.096042352689 244.785552389433 574.5097417249165 245.45735621401207 573.9234410971441 246.12916003859112 573.1934001832858 246.6411259250899 572.4633592694277 247.15309181158872 551.5069669451177 271.9017253995059 530.5505746208079 296.65035898742303 502.8840013979305 324.5433319900766 475.2174281750531 352.4363049927302 457.30481865117406 375.48443192270025 439.392209127295 398.5325588526703 431.9430882144838 411.43301914286343 424.49396730167257 424.33347943305654 429.3811370351457 430.6307130858203 434.26830676861886 436.92794673858407 448.53024059817176 436.61097523874383 462.7921744277246 436.2940037389036 487.1084061942861 431.03054195803736 511.4246379608476 425.7670801771711 534.1916785275506 420.35660054621235 556.9587190942536 414.9461209152536 567.6659441665477 412.46183438268025 578.3731692388416 409.97754785010693 585.8886140245477 410.6735131870671 593.4040588102537 411.36947852402733 586.4101497436814 436.4044976622523 579.4162406771092 461.43951680047724 573.826766673496 474.5587896278337 568.2372926698828 487.6780624551902 574.0566082724536 492.357169112247 579.8759238750242 497.03627576930376 608.1568620034209 493.60845252544004 636.4378001318177 490.18062928157633 688.4879927264634 478.36545350024306 740.5381853211092 466.5502777189098 793.184290165827 452.9301126045069 845.8303950105447 439.3099474901041 872.147574161887 432.9003588069243 898.464753313229 426.49077012374454 908.6201331266539 423.57178482217284 918.7755129400786 420.6527995206011 919.6274244669701 420.54844707077615 920.4793359938617 420.4440946209512 921.3314649070034 420.5466567914784 922.183593820145 420.6492189620056 922.9864143470678 420.9527348347151 923.7892348739906 421.25625070742456 924.4960870479495 421.7430799255338 925.2029392219084 422.229909143643 925.7727407613415 422.8717571701219 926.3425423007747 423.51360519660085 926.7421763134382 424.27316779399337 927.1418103261017 425.0327303913859 927.3480500644029 425.8658617458437 927.554289802704 426.6989931003015 927.5551486033627 427.55727157835895 927.5560074040213 428.4155500564164 927.3514353535029 429.2490924726028 927.1468633029843 430.08263488878924 926.7487501384766 430.842995718712 926.3506369739688 431.60335654863474 925.7821210512982 432.24634358513333 925.2136051286276 432.889330621632 924.5077286199314 433.3775734279345 923.8018521112353 433.86581623423706 922.9996405923646 434.17093811550126 922.1974290734937 434.4760599967654 913.8970600797211 444.9458798912498 905.5966910859485 455.4156997857342 892.4493840325842 464.8728060304703 879.3020769792201 474.3299122752065 871.3734920480858 481.8924302191625 863.4449071169515 489.4549481631185 860.8020080666723 493.68514476695 858.1591090163931 497.9153413707815 857.4117971993171 498.4627333855178 856.664485382241 499.01012540025414 855.8078868921446 499.3627611847445 854.9512884020481 499.7153969692349 854.0351887834229 499.8527813151162 853.1190891647976 499.99016566099755 852.1967321705207 499.90431378363223 851.2743751762438 499.81846190626686 850.3993682381595 499.5143635208011 849.5243613000752 499.2102651353353 848.7475598625368 498.7055944542204 847.9707584249985 498.20092377310544 847.3373102240538 497.52501228003956 846.7038620231091 496.8491007869737 846.2505830979594 496.0412324896914 845.7973041728096 495.23336419240917 845.5505391158817 494.34049243430616 845.3037740589538 493.44762067620314 845.2778648669506 492.52163920581165 845.2519556749475 491.59565773542016 845.4484081913256 490.69038463930644 845.6448607077037 489.7851115431927 846.052257102981 488.953161336237 846.4596534982583 488.1212111292812 847.0543158747996 487.4109367966007 847.6489782513411 486.7006624639202 856.2748543848172 487.531151105921 864.9007305182932 488.3616397479218 872.2828111893027 487.39095706968885 879.6648918603123 486.4202743914559 893.3569040718503 483.3289636619228 907.0489162833882 480.2376529323896 926.5297087332572 476.9875741692174 946.0105011831262 473.7374954060452 957.2492566446035 472.228957407483 968.4880121060809 470.72041940892086 977.0754978031143 473.67575111980057 985.6629835001477 476.63108283068027 984.6428899837763 492.34542093379673 983.622796467405 508.0597590369132 982.7833573273886 515.3806797664657 981.9439181873721 522.7016004960183 991.0696882151037 526.3954970510387 1000.1954582428352 530.089393606059 1015.9996633543806 531.7478786288203 1031.803868465926 533.4063636515816 1047.1510855399492 533.3336059725596 1062.4983026139723 533.2608482935375 1074.3719435918847 533.2231372099028 1086.2455845697968 533.1854261262681 1094.492885776022 532.6032462367514 1102.7401869822472 532.0210663472348 1109.2844699389377 540.5542707117262 1115.8287528956282 549.0874750762176 1119.063834358405 554.9500060299712 1122.2989158211822 560.8125369837247 1128.530744347377 564.8859915117187 1134.762572873572 568.9594460397125 1147.6317031203491 572.6766104288812 1160.5008333671262 576.3937748180499 1183.420168873119 578.2763508669245 1206.3395043791122 580.158926915799 1232.5999746887092 581.1107282668421 1258.860444998306 582.0625296178852 1270.8307163670047 582.7796445569461 1282.8009877357033 583.496759496007 1292.0081881774688 585.3658259540919 1301.2153886192343 587.2348924121768 1306.9922715619196 597.9027579016391 1312.7691545046046 608.5706233911014 1316.7865841562284 615.8852205871506 1320.8040138078525 623.1998177831998 1325.2121041320927 631.4705437956227 1329.620194456333 639.7412698080454 1334.6265817630756 648.2256334340381 1339.6329690698183 656.7099970600307 1340.0656690258427 658.30966088565 1340.498368981867 659.9093247112694 1340.3976262488886 661.5634119244147 1340.29688351591 663.21749913756 1339.6732458846645 664.7528263703782 1339.0496082534191 666.2881536031965 1337.9683707485228 667.5439716891246 1336.8871332436265 668.7997897750529 1335.4615017172607 669.6446142289905 1334.035870190895 670.489438682928 1332.4151086402005 670.8348161615359 1330.7943470895061 671.1801936401436 1329.1481496766803 670.9899630302405 1327.5019522638545 670.7997324203374 1326.0026762925738 670.0938109169963 1324.5034003212932 669.3878894136551 1323.3080203815214 668.2401871846209 1322.1126404417496 667.0924849555868 1321.3463131287303 665.6231667272035 1320.579985815711 664.1538484988203 1320.3229458014084 662.5167522774618 1320.0659057871055 660.8796560561034 1320.3450652288686 659.2461862482976 1320.6242246706317 657.6127164404917 1321.4103555012173 656.1538977663098 1322.1964863318028 654.6950790921279 1323.40728044573 653.5636502518475 1324.618074559657 652.4322214115673 1326.1267614935791 651.7466433034341 1327.6354484275014 651.0610651953009 1329.284068261182 650.8931180282113 1330.9326880948627 650.7251708611219 1332.5486298965222 651.0924387478042 1334.1645716981818 651.4597066344865 1335.5786459346193 652.3237365302555 1336.9927201710568 653.1877664260244 1338.0568728964377 654.4580941727114 1339.1210256218187 655.7284219193984 1339.7238397648869 657.2720438665915 1340.326653907955 658.8156658137844 1340.4050146688035 660.4709643361357 1340.483375429652 662.1262628584868 1340.0290784159347 663.7199277637496 1339.5747814022177 665.3135926690125 1338.635391631194 666.6787668209192 1337.69600186017 668.0439409728261 1336.3698736888405 669.0376902773013 1335.0437455175108 670.0314395817765 1333.4697249154776 670.5497182243171 1331.8957043134444 671.0679968668578 1330.2385916532417 671.0565409367775 1328.5814789930387 671.0450850066974 1327.0147744076246 670.5050939428999 1325.4480698222105 669.9651028791023 1324.1358076952479 668.9531138885109 1322.8235455682852 667.9411248979194 1321.9031200908707 666.5630934949879 1320.9826946134563 665.1850620920566 1320.9833302433385 665.1864608626513 1320.9839658732205 665.187859633246 1320.0495616860949 662.5854688963609 1319.1151574989694 659.9830781594759 1316.0596832485076 654.2959460872512 1313.0042089980454 648.6088140150264 1308.588876188023 640.3453078985715 1304.1735433780007 632.0818017821165 1299.4919963189518 623.1085881728559 1294.8104492599032 614.1353745635952 1288.4180943692922 606.1531392985264 1282.025739478681 598.1709040334575 1270.238495031467 597.6358629651066 1258.4512505842529 597.1008218967557 1231.8272296932648 596.6140642482819 1205.2032088022768 596.1273065998081 1180.5836320509193 594.6250379439371 1155.9640552995616 593.1227692880661 1139.9031981232524 588.8755931954806 1123.8423409469433 584.6284171028951 1114.7749228710238 577.5010294242797 1105.7075047951043 570.3736417456643 1103.7118071536001 559.7108183503406 1101.7161095120962 549.0479949550169 1094.0729430445372 548.6412851199475 1086.4297765769784 548.234575284878 1074.631121935889 548.4865980372759 1062.8324672948 548.7386207896739 1046.6042030640033 549.3475897836698 1030.3759388332069 549.9565587776658 1012.5941869568494 548.6958701174547 994.8124350804919 547.4351814572435 982.0776580822757 542.4627003932098 969.3428810840594 537.4902193291763 966.5875994382795 529.1574472381267 963.8323177924998 520.824675147077 965.2523436914867 511.84789421492746 966.6723695904735 502.87111328277797 968.4610943850391 494.062287466377 970.2498191796047 485.253461649976 959.3859645606726 486.6236011042844 948.5221099417405 487.9937405585927 929.5665529319606 491.517020508057 910.6109959221807 495.04030045752125 895.682323743368 498.83979017143884 880.7536515645554 502.63927988535636 869.4566606311705 500.2770478467642 858.1596696977855 497.9148158081721 857.4124126236474 498.46228255135304 856.6651555495092 499.00974929453395 855.8085923272743 499.36247073711 854.9520291050392 499.7151921796861 854.035943229429 499.8526681348422 853.1198573538187 499.9901440899983 852.197491778966 499.90438444876145 851.2751262041131 499.81862480752466 850.4000888605653 499.514613924273 849.5250515170175 499.21060304102144 848.7481996162951 498.70601004257344 847.9713477155728 498.2014170441255 847.3378319266462 497.52556889925916 846.7043161377195 496.8497207543928 846.2509564280065 496.04189778904237 845.7975967182936 495.2340748236919 845.5507423754239 494.3412277465589 845.3038880325541 493.4483806694259 845.2778862425337 492.5224017945835 845.2518844525131 491.59642291974114 845.4482464405995 490.69113018290216 845.644608428686 489.7858374460632 846.0519216269056 488.95384650362774 846.4592348251253 488.12185556119226 847.0538261712603 487.41152176582557 847.6484175173953 486.7011879704589 850.7857628927762 483.03096519943085 853.9231082681572 479.3607424284029 862.6105618925744 471.3495430387052 871.2980155169917 463.3383436490075 883.6775604417635 454.2443961692229 896.0571053665352 445.15044868943835 907.4159635803512 432.9017096874809 918.7748217941672 420.65297068552337 919.6267228815543 420.54853304506764 920.4786239689413 420.44409540461186 921.3307631340393 420.5465723617351 922.1829022991374 420.6490493188583 922.9857531736334 420.9524849079977 923.7886040481293 421.255920497137 924.4955049014757 421.7426790275948 925.2024057548219 422.2294375580526 925.7722714762086 422.87122860116847 926.3421371975953 423.51301964428427 926.7418471645203 424.27254227447776 927.1415571314452 425.03206490467124 927.3478801818505 425.8651756309896 927.5542032322558 426.69828635730795 927.5551478607578 427.556564745194 927.5560924892598 428.41484313308 927.3516037940055 429.2484060023037 927.1471150987514 430.0819688715274 926.7490779723171 430.8423695089648 926.3510408458827 431.6027701464021 925.7825892247583 432.245814031278 925.2141376036338 432.88885791615377 924.5083099227477 433.3771713076659 923.8024822418615 433.86548469917796 923.0003012391899 434.17068680006827 922.1981202365181 434.4758889009586 911.9650797424752 437.0810733691644 901.7320392484323 439.6862578373702 875.5532282921299 446.27471567131397 849.3744173358276 452.86317350525775 796.5935738057109 466.81114252983593 743.8127302755942 480.75911155441406 691.0358035611164 493.10084060606914 638.2588768466386 505.4425696577242 606.8488147509029 509.09875646436626 575.438752655167 512.7549432710083 565.7116850977317 508.9359109612486 555.9846175402963 505.11687865148895 555.3322314367229 493.6717038870146 554.6798453331493 482.2265291225403 560.1163129726717 468.4466752075572 565.5527806121942 454.6668212925741 573.4933265558328 439.28181088729076 581.4338724994715 423.8968004820074 570.8274256111943 426.1284983938837 560.2209787229169 428.36019630576004 537.361521931796 434.0461506617416 514.5020651406751 439.73210501772314 488.75629844236585 445.5003760525207 463.0105317440566 451.2686470873183 445.4213507343917 451.27692446038645 427.8321697247267 451.2852018334546 420.3858849794275 446.13440317958464 412.9396002341283 440.9836045257147 412.9250372364239 429.7206584191331 412.91047423871953 418.45771231255145 420.8616856345972 404.41235094007675 428.8128970304749 390.36698956760205 447.1363635270405 366.5984385160193 465.45983002360606 342.8298874644366 492.8996061830477 314.8450148573472 520.3393823424893 286.8601422502579 540.5260488243819 266.31079096225625 560.7127153062744 245.7614396742546 563.1011429215506 239.9334139440915 565.4895705368268 234.10538821392845 566.3208572334365 233.78284948309886 567.1521439300462 233.46031075226924 568.0364643953201 233.34609114124157 568.9207848605938 233.23187153021388 569.8067423475404 233.33260948814763 570.6926998344871 233.43334744608137 571.5288024523386 233.7431880781283 572.3649050701902 234.0530287101752 573.102558495513 234.5539640642429 573.8402119208358 235.05489941831064 574.4365437018917 235.71781510808438 575.0328754829476 236.38073079785812 575.4532267886029 237.1670981323013 575.8735780942583 237.9534654667445 576.0935180868784 238.81758073943195 576.3134580794984 239.68169601211943 576.3202038363784 240.57333680280232 576.3269495932582 241.46497759348517 576.1201090506911 242.3323216975154 575.9132685081239 243.1996658015456 575.5048632481621 243.99230313884493 575.0964579882003 244.78494047614427 574.5102245437417 245.45680292742702 573.9239910992831 246.12866537870974 573.1940013856636 246.64070426674 572.4640116720442 247.1527431547702 568.37346328478 246.8435377526149 564.2829148975159 246.53433235045964 553.5097499141045 252.4527689513346 542.7365849306933 258.3712055522096 518.4057070866554 271.5654675900645 494.0748292426175 284.75972962791946 456.3812960325545 305.8901389245559 418.68776282249144 327.02054822119237 389.22182836478953 345.0786927651086 359.7558939070876 363.1368373090249 343.4307049463514 371.61772480878403 327.1055159856151 380.0986123085432 326.2493258491802 380.60322501927703 325.3931357127452 381.1078377300109 324.44106098687246 381.3928802775664 323.48898626099964 381.6779228251219 322.4963615734898 381.72682852324255 321.50373688597995 381.77573422136317 320.52825363030934 381.5856606685762 319.5527703746388 381.3955871157893 318.65112368345996 380.9775813959134 317.74947699228113 380.5595756760375 316.974070613649 379.93793230115176 316.19866423501696 379.316288926266 315.59456482409007 378.5271378385265 314.9904654131631 377.737986750787 314.5927832560879 376.8271934484913 314.1951010990127 375.9164001461956 314.02694950144337 374.93689997886656 313.8587979038741 373.9573998115376 313.9299498445621 372.966121374922 314.00110178525006 371.97484293830644 314.3074219100594 371.0293993817154 314.6137420348688 370.0839558251244 315.1374270037532 369.2392963724885 315.6611119726376 368.3946369198526 316.3717251906004 367.69985321824515 317.0823384085631 367.00506951663766 321.155952519166 363.4390103068788 325.229566629769 359.87295109711994 332.9100176358319 355.1266738717537 340.5904686418947 350.38039664638745 353.8259985107242 341.4884175786567 367.06152837955375 332.596438510926 387.37632607468896 320.2359197295169 407.6911237698242 307.87540094810777 431.37515648460203 293.2442828185983 455.05918919937983 278.6131646890889 480.72938049153777 261.66026591850056 506.39957178369576 244.70736714791224 527.0120906985405 229.1414334825609 547.6246096133852 213.57549981720956 563.9951497575212 197.5734224623708 580.3656899016571 181.57134510753204 581.2680087437609 180.90669739146284 582.1703275858648 180.24204967539364 583.2054905950129 179.8126624098823 584.2406536041608 179.38327514437094 585.3484970576243 179.2141043374636 586.4563405110878 179.04493353055628 587.5724764952997 179.1458113974989 588.6886124795117 179.2466892644415 589.7481711186282 179.6117527788676 590.8077297577447 179.97681629329372 591.7491294538772 180.58484794659248 592.6905291500099 181.19287959989123 593.4590557085877 182.00854056380462 594.2275822671655 182.82420152771803 594.7785688884951 183.80008554869977 595.3295555098246 184.7759695696815 595.6309788255861 185.85535822258043 595.9324021413477 186.93474687547936 595.9667434142668 188.0549060410741 596.0010846871861 189.17506520666885 595.7663480008673 190.27089118162462 595.5316113145486 191.36671715658036 595.0414395762298 192.37452048374553 594.551267837911 193.38232381091072 593.834149852054 194.24353091355903 593.117031866197 195.10473801620734 593.1173702010199 195.10441923265796 Z" fill="hsl(167, 52%, 78%)"></path><path d="M 398.0356324780328 392.88337444574677 Q 398.0356324780328 392.88337444574677 383.19438403085996 406.218526741223 368.35313558368705 419.55367903669924 303.9709871602505 459.4524535223926 239.5888387368139 499.35122800808597 199.2510519063937 528.6195755595078 158.91326507597353 557.8879231109296 126.88060047611899 579.0198801733048 94.84793587626444 600.1518372356801 78.6927888293128 614.4086301359305 62.53764178236117 628.6654230361808 51.60958089826758 635.8067304024669 40.681520014173984 642.9480377687531 48.261951510851155 613.087854251397 55.842383007528326 583.2276707340408 68.85227331776302 547.8489578756844 81.86216362799772 512.4702450173281 99.8530405375954 467.9709275141987 117.84391744719309 423.47161001106923 129.07172566067356 370.97431857178515 140.299533874154 318.47702713250106 142.110743718502 298.37856811148754 143.92195356284998 278.28010909047396 145.82252146304256 268.25956597195284 147.72308936323512 258.2390228534317 147.91667535465433 257.7291354537296 148.11026134607357 257.2192480540275 148.42024957404072 256.7705076001229 148.7302378020079 256.32176714621835 149.13861173614885 255.96025445437618 149.5469856702898 255.59874176253405 150.03001059836492 255.34546796738977 150.51303552644 255.09219417224548 151.0426380169347 254.9618795586729 151.57224050742934 254.83156494510033 152.11764003871278 254.8317834045631 152.66303956999622 254.83200186402587 153.19253749568475 254.96274069964971 153.72203542137325 255.0934795352736 154.20485729714747 255.34714019978935 154.6876791729217 255.6008008643051 155.09576336867636 255.96264058797294 155.50384756443103 256.32448031164074 155.81347620753507 256.77346895272007 156.12310485063915 257.2224575937994 156.3162823098076 257.73249991137504 156.50945976897603 258.2425422289507 156.57495856120556 258.783994539561 156.6404573534351 259.32544685017126 156.5744706858439 259.8668399200834 156.5084840182527 260.4082329899956 161.0047650700023 278.3104113252788 165.50104612175187 296.21258966056195 168.3988308590313 261.5030102375116 171.29661559631074 226.79343081446126 171.57792747045409 225.79126257638046 171.85923934459746 224.7890943382997 172.44582818142018 223.92921580939753 173.0324170182429 223.06933728049538 173.86286681168525 222.44177796973378 174.69331660512756 221.81421865897215 175.68067904259863 221.4846841918474 176.6680414800697 221.15514972472266 177.7089394537279 221.1581424469314 178.7498374273861 221.16113516914015 179.73528864461906 221.4963417418771 180.72073986185202 221.83154831461405 181.54756732008158 222.46387252122776 182.37439477831114 223.09619672784143 182.95602942439945 223.959434056982 183.53766407048772 224.82267138612255 183.81320860345264 225.8264406615565 184.08875313641755 226.8302099369904 184.029357970921 227.86941625061036 183.96996280542444 228.90862256423034 183.58184663097268 229.87446074067654 183.19373045652094 230.84029891712274 182.5175291390318 231.63164544436472 181.8413278215427 232.42299197160673 180.94783981745712 232.95699265934707 180.05435181337154 233.49099334708743 179.03712555257522 233.71173818235724 178.01989929177887 233.93248301762702 176.9854386322988 233.81685995790255 175.95097797281875 233.70123689817808 175.0075912187736 233.26135170833402 174.06420446472848 232.82146651848993 173.31066445829669 232.10337529402136 172.55712445186492 231.38528406955277 172.07232703063517 230.4641711512192 171.5875296094054 229.54305823288567 171.4222331913545 228.51536438638686 171.25693677330364 227.48767053988803 171.42844793703554 226.46099558223722 171.59995910076745 225.4343206245864 172.0903205821649 224.5161576948655 172.58068206356234 223.5979947651446 173.33855288608015 222.88447576446686 174.09642370859794 222.1709567637891 175.04245459706001 221.73678731987616 175.9884854855221 221.30261787596325 177.02362675617854 221.19325564420248 178.05876802683503 221.0838934124417 179.0746401153974 221.31078864736725 180.09051220395975 221.53768388229275 180.98075303459137 222.07708059291335 181.87099386522297 222.61647730353394 182.54239498795593 223.41190051186075 183.2137961106889 224.20732372018756 183.59606165074035 225.1754924063374 183.97832719079184 226.14366109248726 184.0314338452102 227.18320773944856 184.0845404996285 228.22275438640986 184.0846476988972 228.22179529203493 184.0847548981659 228.22083619766 181.33206148946533 258.9437854359587 178.57936808076474 289.6667346742574 172.113731866366 301.2490409231137 165.64809565196728 312.83134717197 156.78466860516767 298.5291263932492 147.92124155836802 284.22690561452845 147.8221112525119 271.23318387426855 147.72298094665572 258.2394621340087 147.91651594836713 257.7295553782569 148.11005095007852 257.21964862250513 148.41999430245045 256.7708771720215 148.72993765482238 256.3221057215379 149.13827543565233 255.96055219410997 149.54661321648229 255.598998666682 150.02961281476277 255.34567657031138 150.51261241304326 255.09235447394076 151.0422018694286 254.9619869007708 151.5717913258139 254.83161932760083 152.11719087621628 254.83178324710946 152.66259042661866 254.83194716661808 153.19210142354325 254.96263305179576 153.7216124204678 255.09331893697345 154.20445965989433 255.3469313180334 154.68730689932087 255.60054369909338 155.09542727700742 255.9623426125325 155.50354765469396 256.3241415259716 155.81322119511393 256.7730992019417 156.1228947355339 257.2220568779118 156.31612319796812 257.7320798751914 156.50935166040233 258.242102872471 156.57490459753535 258.7835486304948 156.64045753466834 259.3249943885186 156.57452500671397 259.8663940543905 156.5085924787596 260.4077937202625 153.92173187922253 269.6704033224398 151.3348712796855 278.9330129246172 149.64082497467055 299.51148179216057 147.9467786696556 320.089950659704 136.77315685698107 373.3195917091969 125.59953504430658 426.5492327586898 108.01489451204729 471.0498552696514 90.430253979788 515.5504777806129 77.90391486328853 551.2091485308483 65.37757574678906 586.8678192810836 61.31825426899036 604.8100659177924 57.25893279119166 622.752312554501 73.68856142811514 607.9191769320457 90.11819006503862 593.0860413095903 121.75320962699217 571.726267443597 153.38822918894573 550.3664935776036 193.68913663388756 520.3941792897026 233.99004407882938 490.42186500180173 296.92155358228797 450.5293091690747 359.8530630857465 410.6367533363476 373.7405634483881 396.3481249921754 387.6280638110297 382.05949664800323 388.35127594513375 381.5154391985329 389.0744880792378 380.9713817490625 389.90688918510875 380.61621601565844 390.7392902909797 380.2610502822544 391.632501177234 380.1154185140295 392.52571206348836 379.9697867458046 393.42781927144966 380.0421530679705 394.329926479411 380.11451939013637 395.18849949576725 380.4006778686487 396.04707251212346 380.68683634716103 396.81221103282417 381.1701554378036 397.5773495535248 381.65347452844617 398.2045836917969 382.30586370296214 398.83181783006904 382.95825287747806 399.2846927083258 383.74179524639214 399.7375675865825 384.5253376153063 399.98976209562124 385.3944936593227 400.24195660466 386.26364970333907 400.2788131877662 387.16790403234245 400.31566977087243 388.07215836134577 400.13504632170424 388.9589556712482 399.95442287253604 389.8457529811506 399.5668172344457 390.6635525706346 399.1792115963553 391.4813521601185 398.60715142724007 392.182623478619 398.0350912581249 392.8838947971195 398.0353618680789 392.88363462143315 Z" fill="hsl(105, 69%, 30%)"></path><path d="M 547.73681640625 639.2344616214435 Q 547.73681640625 639.2344616214435 565.3624224208813 639.9832853116056 582.9880284355127 640.7321090017679 619.8923610640755 628.6471171854478 656.7966936926384 616.5621253691276 752.9734521286355 592.4059239989492 849.1502105646326 568.2497226287708 951.0461037758257 538.4481794538773 1052.9419969870187 508.64663627898375 1094.1968825301597 496.9353686858194 1135.4517680733006 485.22410109265513 1142.3123737582807 483.6087290587667 1149.1729794432608 481.99335702487826 1149.7528806435414 481.9001231566236 1150.332781843822 481.8068892883689 1150.9181441230576 481.8551485706346 1151.5035064022932 481.9034078529002 1152.0603084773115 482.09035545393346 1152.6171105523297 482.2773030549667 1153.112991060369 482.5920735714118 1153.6088715684086 482.9068440878568 1154.0150099110433 483.33114304250853 1154.4211482536782 483.75544199716023 1154.713939651352 484.2646091148386 1155.0067310490256 484.773776232517 1155.1691584519488 485.3382186964194 1155.331585854872 485.9026611603219 1155.354208974755 486.48957354792617 1155.376832094638 487.0764859355305 1155.2583360746908 487.6517568712932 1155.1398400547432 488.22702780705583 1154.8871118892118 488.75722251716127 1154.6343837236805 489.28741722726676 1154.2621119854205 489.74172077025264 1153.8898402471605 490.1960243132385 1153.4196613870904 490.5480325458411 1152.9494825270206 490.90004077844367 1152.4087233625792 491.12929496564504 1151.867964198138 491.3585491528464 1150.0917622341296 504.42065452712967 1148.3155602701213 517.4827599014129 1157.0412811635997 526.6749007719409 1165.767002057078 535.8670416424688 1184.5272617758806 518.9351276919673 1203.287521494683 502.00321374146574 1242.3690078791624 469.69559902434366 1281.4504942636418 437.3879843072216 1282.4065754706692 436.8080298479197 1283.3626566776966 436.22807538861787 1284.4538729390724 435.9837691868879 1285.5450892004485 435.739462985158 1286.6571898855539 435.85638396481176 1287.7692905706592 435.9733049444655 1288.7858384441975 436.43921144806905 1289.8023863177357 436.90511795167254 1290.6169485490045 437.67122944531116 1291.4315107802736 438.4373409389498 1291.9588024886361 439.4234453470057 1292.4860941969985 440.4095497550617 1292.670907801397 441.5124016857053 1292.8557214057957 442.61525361634887 1292.6787068730641 443.719384181317 1292.5016923403325 444.8235147462852 1291.981383138775 445.8133211839636 1291.4610739372176 446.80312762164203 1290.6519465775855 447.57497693672224 1289.8428192179533 448.34682625180244 1288.8295895483889 448.8199056172472 1287.8163598788244 449.29298498269185 1286.705113313198 449.41776286405815 1285.5938667475714 449.54254074542445 1284.5009510946443 449.30595286559515 1283.4080354417172 449.0693649857658 1282.447879258853 448.4961821582121 1281.4877230759885 447.9229993306584 1280.7608549689894 447.0732339487308 1280.0339868619903 446.22346856680315 1279.6165101135339 445.18609129030574 1279.1990333650772 444.14871401380833 1279.1346579009296 443.0323385174314 1279.0702824367822 441.91596302105444 1279.3657483850336 440.83747411396314 1279.661214333285 439.75898520687184 1280.285586331158 438.8313009623321 1280.9099583290306 437.90361671779226 1281.7978644635295 437.22386592109217 1282.6857705980283 436.54411512439214 1283.7442468624868 436.18346786338304 1284.802723126945 435.8228206023739 1285.9209467770634 435.8190367404851 1287.039170427182 435.81525287859625 1288.1000631516108 436.1687285871663 1289.1609558760397 436.52220429573634 1290.0534419264827 437.1959305747694 1290.9459279769255 437.8696568538025 1291.5765638283078 438.79309438403743 1292.2071996796903 439.71653191427237 1292.5099575919005 440.7929965425297 1292.8127155041107 441.869461170787 1292.75589664382 442.98624676632915 1292.6990777835297 444.10303236187127 1292.2886311004095 445.1432111780422 1291.878184417289 446.18338999421303 1291.1570837874092 447.03805503437906 1290.4359831575293 447.8927200745451 1290.4367710127178 447.892046162873 1290.4375588679063 447.8913722512009 1252.9760430262904 481.07661656958646 1215.5145271846745 514.261860887972 1187.448064676941 535.0287720913157 1159.3816021692073 555.7956832946592 1150.5250648826877 546.727995277151 1141.6685275961684 537.6603072596429 1139.055177758834 523.2535904501474 1136.4418279214997 508.84687364065195 1142.8071695593155 495.4201827307967 1149.1725111971314 481.9934918209414 1149.7524030711256 481.90019996303295 1150.3322949451199 481.80690810512453 1150.9176620473568 481.85510885092106 1151.5030291495939 481.9033095967176 1152.059849916588 482.09020151660866 1152.6166706835822 482.27709343649974 1153.1125826661942 482.5918143633203 1153.6084946488058 482.90653529014077 1154.0146754193051 483.3307936288368 1154.4208561898047 483.7550519675328 1154.7136985027262 484.2641898035256 1155.0065408156477 484.7733276395184 1155.169024662005 485.3377538578584 1155.3315085083623 485.90218007619836 1155.354190319371 486.48909019855614 1155.3768721303795 487.0760003209139 1155.258433638118 487.6512831034022 1155.1399951458566 488.22656588589047 1154.8873200010598 488.75678586616147 1154.634644856263 489.28700584643246 1154.2624185502186 489.7413466143206 1153.8901922441742 490.1956873822087 1153.4200485872784 490.54774263093714 1152.9499049303824 490.89979787966564 1152.4091686940637 491.12910614163707 1151.8684324577448 491.35841440360855 1144.7693120078131 492.15452339895324 1137.6701915578815 492.95063239429794 1096.5309408246228 504.9540644575843 1055.3916900913641 516.9574965208707 953.4511521176846 547.2384148671772 851.510614144005 577.5193332134838 755.8895064196684 602.1970233252543 660.2683986953316 626.8747134370248 621.7354383342552 640.2036264363785 583.2024779731787 653.5325394357321 565.4696471897144 654.2813631258944 547.73681640625 655.0301868160565 546.791745795603 654.9154307797478 545.8466751849561 654.800674743439 544.9565321226039 654.4630762607349 544.0663890602517 654.1254777780307 543.2829087028014 653.584658088608 542.499428345351 653.0438383991851 541.8681466079893 652.3312299688032 541.2368648706274 651.6186215384213 540.7944718775902 650.7756412025358 540.3520788845531 649.9326608666504 540.1242865373816 649.0083026819904 539.8964941902102 648.0839444973303 539.8965417908248 647.1319322050189 539.8965893914395 646.1799199127074 540.1244741732903 645.2555845119039 540.3523589551411 644.3312491111003 540.7948362439997 643.4883130187291 541.2373135328584 642.6453769263577 541.8686665279067 641.9328316277124 542.500019522955 641.2202863290672 543.2835539584568 640.6795449903841 544.0670883939586 640.1388036517011 544.9572652117083 639.8012941849911 545.847442029458 639.463784718281 546.7925241109832 639.3491231896069 547.7376061925085 639.2344616609329 547.7372112993792 639.2344616411882 Z" fill="hsl(105, 69%, 30%)"></path><path d="M 1185.7606759036507 302.7421179146952 Q 1185.7606759036507 302.7421179146952 1168.5750355785458 302.9332710813861 1151.389395253441 303.1244242480771 1114.3051204066956 306.3946226403232 1077.2208455599498 309.6648210325692 1036.6466131108689 315.36377890336007 996.0723806617879 321.0627367741509 967.4377665605705 324.1711506271099 938.803152459353 327.27956448006887 946.5837324439126 314.26126553952 954.3643124284723 301.2429665989712 968.4879996463135 290.2630259975514 982.6116868641548 279.2830853961315 1009.8630658256725 263.2748269112525 1037.1144447871902 247.2665684263735 1062.1376544731947 228.20644561725084 1087.1608641591993 209.14632280812813 1098.9385674124183 198.24085700754094 1110.716270665637 187.33539120695374 1111.1487300560068 188.27763436901427 1111.5811894463766 189.2198775310748 1110.912759105721 188.73286237689055 1110.2443287650656 188.24584722270632 1109.7664002992497 187.57088999274526 1109.2884718334337 186.89593276278418 1109.0510844789892 186.1037016571946 1108.8136971245444 185.311470551605 1108.8417054001457 184.4849123762708 1108.8697136757469 183.65835420093663 1109.1601851075452 182.88400981500553 1109.4506565393433 182.1096654290744 1109.9731786917523 181.4686088941604 1110.495700844161 180.82755235924643 1111.195565509891 180.38690246377757 1111.8954301756207 179.9462525683087 1112.6993613394234 179.7521454726608 1113.503292503226 179.55803837701288 1114.327118360034 179.63079714533959 1115.1509442168422 179.7035559136663 1115.9084099819788 180.03556268371736 1116.6658757471157 180.36756945376843 1117.2776745550198 180.9240630290782 1117.8894733629238 181.480556604388 1118.2915497169083 182.20327196072154 1118.693626070893 182.92598731705507 1118.8438824705584 183.73925596582592 1118.9941388702237 184.5525246145968 1118.8768434308604 185.37119711359657 1118.7595479914974 186.18986961259637 1118.3869815765704 186.92823073507125 1118.0144151616435 187.66659185754614 1117.4255855731435 188.2473349990646 1116.8367559846433 188.82807814058305 1116.093313835922 189.19039934092677 1115.3498716872007 189.55272054127053 1114.5296555674788 189.65868467512007 1113.709439447757 189.7646488089696 1112.8983262012857 189.60316140353908 1112.0872129548145 189.44167399810854 1111.3701263526123 189.02964282737503 1110.65303975041 188.61761165664154 1110.10505894902 187.99817649294656 1109.55707814763 187.37874132925157 1109.2355768816105 186.61675719774894 1108.914075615591 185.85477306624634 1108.8527151523624 185.0300199066487 1108.7913546891339 184.20526674705104 1108.9965594853938 183.40409643288194 1109.2017642816538 182.60292611871282 1109.652049341065 181.9092213933542 1110.1023344004764 181.21551666799553 1110.7505547584547 180.70190859931267 1111.3987751164332 180.1883005306298 1112.1770619303852 179.90856401899316 1112.955348744337 179.62882750735653 1113.7822151793935 179.61225103937778 1114.6090816144501 179.595674571399 1115.3979545365896 179.84399370765124 1116.186827458729 180.09231284390344 1116.1861428913726 180.09196742104993 1116.1854583240158 180.09162199819642 1116.396393365411 186.78871319361573 1116.6073284068063 193.48580438903505 1104.7546300547515 205.01043685936096 1092.9019317026964 216.53506932968688 1067.7494182958176 236.42230869341608 1042.5969048889388 256.3095480571453 1016.5752114570163 272.54259809425105 990.5535180250938 288.7756481313567 976.9775047164235 301.0563802393075 963.4014914077533 313.3371123472583 950.5735360098699 315.8058563406883 937.7455806119865 318.2746003341183 966.1545487659782 314.64945277479205 994.5635169199701 311.02430521546586 1035.2824949872306 304.50286026226286 1076.0014730544913 297.9814153090598 1113.240071310193 293.4981733411603 1150.4786695658947 289.0149313732608 1167.5466189014346 286.99617845779846 1184.6145682369743 284.97742554233605 1185.6857701750203 285.0379136173507 1186.7569721130662 285.09840169236537 1187.7825687020022 285.4134953864562 1188.808165290938 285.728589080547 1189.728548808827 286.27997513340875 1190.6489323267162 286.8313611862705 1191.410610040255 287.5869930146041 1192.1722877537939 288.34262484293777 1192.7309909184842 289.25858508937733 1193.2896940831743 290.17454533581684 1193.6129508448337 291.197598347803 1193.936207606493 292.2206513597892 1194.0052302669458 293.29133724819746 1194.0742529273984 294.36202313660567 1193.885029886376 295.4181135872957 1193.6958068453537 296.47420403798577 1193.2593357548908 297.45431902434336 1192.822864664428 298.4344340107009 1192.1645132448098 299.2816092036684 1191.5061618251918 300.1287843966358 1190.6641934918594 300.79378193419353 1189.8222251585269 301.45877947175126 1188.845575150573 301.90294966577164 1187.8689251426192 302.34711985979203 1186.814356404394 302.54464751772935 1185.7597876661684 302.7421751756667 1185.7602317849096 302.74214654518096 Z" fill="hsl(105, 69%, 30%)"></path><path d="M 87.47983089301208 127.41747120197608 Q 87.47983089301208 127.41747120197608 122.36903884082321 118.06869098614558 157.25824678863435 108.71991077031507 231.32865345764253 109.11112735500663 305.39906012665074 109.5023439396982 393.97029834872967 109.8758037597672 482.5415365708086 110.24926357983618 580.742700404095 110.47704010544557 678.9438642373814 110.70481663105495 782.8371024264356 110.85275879327271 886.7303406154899 111.00070095549047 961.3233894775204 111.10121798785886 1035.916438339551 111.20173502022726 1074.0970102480562 112.90758353247293 1112.2775821565615 114.61343204471858 1129.074302055401 119.42437601183939 1145.8710219542406 124.23531997896019 1153.3169307376802 128.33211396517675 1160.7628395211195 132.4289079513933 1160.762586188387 132.43390152952193 1160.7623328556547 132.43889510765055 1160.7620795229222 132.44388868577917 1160.7618261901898 132.4488822639078 1153.2548663739271 135.78709173153436 1145.7479065576642 139.12530119916096 1128.8690966515978 143.65909277907787 1111.9902867455312 148.1928843589948 1073.9498639499373 149.24660960723133 1035.9094411543433 150.30033485546784 961.3139377369679 150.37419657023432 886.7184343195925 150.4480582850008 782.8161560010371 150.53328205286107 678.9138776824818 150.6185058207213 580.6880011520452 150.69870965372485 482.4621246216085 150.7789134867284 393.8169782332729 150.80514344184243 305.1718318449373 150.83137339695645 230.64210022163292 150.40557853469522 156.11236859832852 149.97978367243397 121.79582207531448 138.70862358142034 87.47927555230042 127.43746349040673 87.47955322265625 127.4274673461914 Z" fill="hsl(50, 98%, 50%)"></path><path d="M 236.8140676961711 705.8038567639272 Q 236.8140676961711 705.8038567639272 267.26461266855785 700.8862035751945 297.7151576409446 695.9685503864616 357.3618348646402 698.9005570060729 417.00851208833575 701.8325636256842 502.889855011329 703.5918904965533 588.7711979343223 705.3512173674224 699.6674706092294 706.1853936390022 810.5637432841364 707.019569910582 932.0426563910203 707.4345798473371 1053.5215694979042 707.8495897840921 1158.649211597407 717.8830262909225 1263.77685369691 727.9164627977528 1263.7768480429222 727.9214627945561 1263.7768423889343 727.9264627913593 1263.7768367349463 727.9314627881625 1263.7768310809586 727.9364627849658 1158.6035234415008 737.7320913392509 1053.4302158020432 747.5277198935362 931.8777409661527 747.3831817066556 810.3252661302621 747.238643519775 699.1811141362789 746.7562359710356 588.0369621422958 746.2738284222962 501.26838221730293 744.9353110100615 414.49980229231 743.5967935978266 352.87621247766026 739.2397548454285 291.2526226630105 734.8827160930305 264.0317011894744 720.3531503676766 236.81077971593828 705.8235846423228 236.8124237060547 705.813720703125 Z" fill="hsl(50, 98%, 50%)"></path><path d="M 707.0994873046875 404.90912841796876 Q 707.0994873046875 404.90912841796876 742.0227706909179 394.66913798029657 776.9460540771485 384.42914754262443 845.2947544479371 384.0909346126577 913.6434548187256 383.75272168269095 992.993974864006 384.00562425915507 1072.3444949092864 384.25852683561914 1140.6713300032375 384.45803929762747 1208.9981650971888 384.65755175963574 1266.8728076219813 394.7833400888022 1324.747450146774 404.90912841796876 1324.747450146774 404.91412841796875 1324.747450146774 404.91912841796875 1324.747450146774 404.92412841796875 1324.747450146774 404.92912841796874 1266.8728076219813 415.0549167471353 1208.9981650971888 425.18070507630176 1140.6713300032375 425.38021753831003 1072.3444949092864 425.57973000031836 992.993974864006 425.83263257678243 913.6434548187256 426.08553515324655 845.2947544479371 425.7473222232798 776.9460540771485 425.40910929331307 742.0227706909179 415.16911885564093 707.0994873046875 404.92912841796874 707.0994873046875 404.91912841796875 Z" fill="hsl(50, 98%, 50%)"></path><path d="M 480.8713684082031 767.0970556640625 Q 480.8713684082031 767.0970556640625 498.1728092193604 765.9043957184676 515.4742500305176 764.7117357728728 553.90587723732 764.6921005682746 592.3375044441224 764.6724653636765 665.0608141710759 764.9900340299796 737.7841238980293 765.3076026962826 834.0525252524435 765.5378399793524 930.3209266068577 765.768077262422 1026.6636776024056 765.9349992926476 1123.0064285979536 766.1019213228732 1193.428603813542 766.2234025857845 1263.8507790291303 766.3448838486956 1308.518474064603 766.7209697563791 1353.1861691000756 767.0970556640625 1353.1861691000756 767.1020556640625 1353.1861691000756 767.1070556640625 1353.1861691000756 767.1120556640625 1353.1861691000756 767.1170556640625 1308.518474064603 767.4931415717459 1263.8507790291303 767.8692274794294 1193.428603813542 767.9907087423405 1123.0064285979536 768.1121900052518 1026.6636776024056 768.2791120354774 930.3209266068577 768.446034065703 834.0525252524435 768.6762713487726 737.7841238980293 768.9065086318424 665.0608141710759 769.2240772981454 592.3375044441224 769.5416459644485 553.90587723732 769.5220107598504 515.4742500305176 769.5023755552522 498.1728092193604 768.3097156096574 480.8713684082031 767.1170556640625 480.8713684082031 767.1070556640625 Z" fill="url(#dddraw-gradient)"></path><path d="M 270.2465075063604 169.7656818736093 Q 270.2465075063604 169.7656818736093 286.76866347262694 170.67805894284317 303.29081943889355 171.59043601207702 366.49964088694753 173.54672581925576 429.7084623350015 175.50301562643452 544.6876810325102 176.8787216393447 659.666899730019 178.25442765225486 789.606466951464 178.96754395644905 919.5460341729088 179.6806602606432 1038.8500428278392 180.7256578536945 1158.1540514827695 181.77065544674582 1158.1540442931864 181.77565544157682 1158.154037103603 181.78065543640778 1158.1540299140197 181.78565543123875 1158.1540227244366 181.79065542606975 1038.8445710085066 182.4925463993644 919.5351192925766 183.19443737265902 789.5813925233022 183.10024398330808 659.6276657540278 183.00605059395716 544.5542069837136 182.4822043867612 429.48074821339935 181.95835817956524 366.0206182263642 179.44511335120018 302.56048823932906 176.9318685228351 286.4021380715625 173.3586823138707 270.24378790379586 169.78549610490631 270.2451477050781 169.7755889892578 Z" fill="url(#dddraw-gradient)"></path><path d="M 1355.7044485680858 60.561565872282586 Q 1355.7044485680858 60.561565872282586 1357.972690838897 67.94382843208268 1360.240933109708 75.3260909918828 1350.4224153938808 105.31285032639173 1340.6038976780533 135.29960966090067 1311.6955101678564 186.95800008152042 1282.7871226576594 238.6163905021402 1246.5615254319455 311.36279328332205 1210.3359282062315 384.1091960645039 1156.890068778696 467.59599836143786 1103.4442093511607 551.0828006583719 1103.439861337347 551.080331898384 1103.4355133235335 551.0778631383962 1103.43116530972 551.0753943784084 1103.4268172959064 551.0729256184205 1147.4448658299898 462.9049618673024 1191.4629143640732 374.73699811618434 1227.7580788633081 301.4152193240542 1264.053243362543 228.09344053192407 1292.7005357267665 177.30208092423166 1321.3478280909899 126.51072131653923 1336.8887441215002 100.8925794254813 1352.4296601520107 75.27443753442337 1354.0570637997748 67.9184361057286 1355.6844674475392 60.56243467703382 1355.6944580078125 60.5620002746582 Z" fill="url(#dddraw-gradient)"></path><path d="M 320.40362741223515 270.077282596044 Q 320.40362741223515 270.077282596044 318.01943550623577 287.8014534388823 315.6352436002364 305.52562428172064 301.39707490898184 336.0695825252469 287.15890621772724 366.61354076877325 262.97005801122793 404.4146333174058 238.78120980472858 442.21572586603827 207.9557419008562 487.06960348439196 177.1302739969838 531.9234811027457 136.69638667537203 580.3347322028578 96.26249935376025 628.74598330297 96.25840776478398 628.7431094728342 96.25431617580772 628.7402356426984 96.25022458683145 628.7373618125625 96.24613299785518 628.7344879824268 127.9940111923207 574.3776205368607 159.7418893867862 520.0207530912946 190.19782868835244 475.3500544728043 220.65376798991866 430.67935585431394 244.16041817552443 393.5319754214935 267.6670683611302 356.3845949886731 284.23507741950937 328.1837654438083 300.8030864778886 299.9829358989434 310.5939861246236 285.026618155356 320.3848857713586 270.0703004117685 320.3942565917969 270.07379150390625 Z" fill="url(#dddraw-gradient)"></path><path d="M 992.3939541586082 631.1374417666433 Q 992.3939541586082 631.1374417666433 1012.3562541447948 630.6334911349616 1032.3185541309815 630.1295405032797 1064.3050855518086 633.8121214131736 1096.2916169726354 637.4947023230675 1132.5163846088662 642.9418397421334 1168.7411522450973 648.3889771611993 1201.3587638014535 652.6581340595968 1233.9763753578097 656.9272909579944 1265.0379349864306 662.1430614698995 1296.0994946150518 667.3588319818048 1315.2576326412268 674.0197690560169 1334.4157706674018 680.6807061302289 1334.4150978722378 680.6856606581244 1334.4144250770737 680.69061518602 1334.4137522819096 680.6955697139155 1334.4130794867456 680.700524241811 1314.226256254605 682.0186516228441 1294.0394330224644 683.3367790038772 1262.67957789117 680.5044690336701 1231.3197227598755 677.6721590634633 1198.4820035162468 673.5589018966429 1165.644284272618 669.4456447298224 1129.27509513223 664.2159278226402 1092.9059059918422 658.9862109154578 1061.1334418606061 652.6243465586281 1029.3609777293702 646.2624822017983 1010.8756626642873 638.7097980496087 992.3903475992043 631.1571138974192 992.3921508789062 631.1472778320312 Z" fill="url(#dddraw-gradient)"></path><path d="M 317.0533203584948 622.2415910589791 Q 317.0533203584948 622.2415910589791 307.20691174982994 627.8023681714509 297.36050314116505 633.3631452839227 272.957258058273 641.8997820028562 248.5540129753809 650.4364187217899 197.8389867118276 657.0510810843309 147.12396044827432 663.6657434468719 147.12278623819813 663.6608832791077 147.12161202812194 663.6560231113434 147.12043781804576 663.6511629435792 147.11926360796957 663.6463027758149 195.18944225660198 646.3945908459822 243.25962090523436 629.1428789161495 268.85432267598 625.2480974069338 294.4490244467256 621.353315897718 305.74881639958414 621.7877349779632 317.0486083524427 622.2221540582084 317.05096435546875 622.2318725585938 Z" fill="url(#dddraw-gradient)"></path></svg>