<svg xmlns="http://www.w3.org/2000/svg" version="1.1" xmlns:xlink="http://www.w3.org/1999/xlink" xmlns:svgjs="http://svgjs.dev/svgjs" viewBox="0 0 1422 800"><defs><linearGradient x1="50%" y1="0%" x2="50%" y2="100%" id="oooscillate-grad"><stop stop-color="hsl(105, 69%, 40%)" stop-opacity="1" offset="0%"></stop><stop stop-color="hsl(105, 69%, 60%)" stop-opacity="1" offset="100%"></stop></linearGradient></defs><g stroke-width="2.5" stroke="url(#oooscillate-grad)" fill="none" stroke-linecap="round"><path d="M 0 918 Q 355.5 230 711 400 Q 1066.5 570 1422 918" stroke-dasharray="56 62" opacity="0.43"></path><path d="M 0 901 Q 355.5 230 711 400 Q 1066.5 570 1422 901" stroke-dasharray="40 63" opacity="0.11"></path><path d="M 0 884 Q 355.5 230 711 400 Q 1066.5 570 1422 884" stroke-dasharray="26 64" opacity="0.23"></path><path d="M 0 867 Q 355.5 230 711 400 Q 1066.5 570 1422 867" stroke-dasharray="33 13" opacity="0.47"></path><path d="M 0 850 Q 355.5 230 711 400 Q 1066.5 570 1422 850" stroke-dasharray="14 46" opacity="0.30"></path><path d="M 0 833 Q 355.5 230 711 400 Q 1066.5 570 1422 833" stroke-dasharray="38 42" opacity="0.41"></path><path d="M 0 816 Q 355.5 230 711 400 Q 1066.5 570 1422 816" stroke-dasharray="20 51" opacity="0.96"></path><path d="M 0 799 Q 355.5 230 711 400 Q 1066.5 570 1422 799" stroke-dasharray="38 5" opacity="0.17"></path><path d="M 0 782 Q 355.5 230 711 400 Q 1066.5 570 1422 782" stroke-dasharray="56 47" opacity="0.53"></path><path d="M 0 765 Q 355.5 230 711 400 Q 1066.5 570 1422 765" stroke-dasharray="63 49" opacity="0.26"></path><path d="M 0 748 Q 355.5 230 711 400 Q 1066.5 570 1422 748" stroke-dasharray="56 14" opacity="0.29"></path><path d="M 0 731 Q 355.5 230 711 400 Q 1066.5 570 1422 731" stroke-dasharray="47 54" opacity="0.69"></path><path d="M 0 714 Q 355.5 230 711 400 Q 1066.5 570 1422 714" stroke-dasharray="67 6" opacity="0.29"></path><path d="M 0 697 Q 355.5 230 711 400 Q 1066.5 570 1422 697" stroke-dasharray="50 10" opacity="0.75"></path><path d="M 0 680 Q 355.5 230 711 400 Q 1066.5 570 1422 680" stroke-dasharray="13 16" opacity="0.56"></path><path d="M 0 663 Q 355.5 230 711 400 Q 1066.5 570 1422 663" stroke-dasharray="54 29" opacity="0.25"></path><path d="M 0 646 Q 355.5 230 711 400 Q 1066.5 570 1422 646" stroke-dasharray="52 26" opacity="0.52"></path><path d="M 0 629 Q 355.5 230 711 400 Q 1066.5 570 1422 629" stroke-dasharray="15 33" opacity="0.75"></path><path d="M 0 612 Q 355.5 230 711 400 Q 1066.5 570 1422 612" stroke-dasharray="49 32" opacity="0.33"></path><path d="M 0 595 Q 355.5 230 711 400 Q 1066.5 570 1422 595" stroke-dasharray="5 11" opacity="0.41"></path><path d="M 0 578 Q 355.5 230 711 400 Q 1066.5 570 1422 578" stroke-dasharray="3 49" opacity="0.99"></path><path d="M 0 561 Q 355.5 230 711 400 Q 1066.5 570 1422 561" stroke-dasharray="53 1" opacity="0.45"></path><path d="M 0 544 Q 355.5 230 711 400 Q 1066.5 570 1422 544" stroke-dasharray="2 62" opacity="0.26"></path><path d="M 0 527 Q 355.5 230 711 400 Q 1066.5 570 1422 527" stroke-dasharray="2 1" opacity="0.57"></path><path d="M 0 510 Q 355.5 230 711 400 Q 1066.5 570 1422 510" stroke-dasharray="65 4" opacity="0.24"></path><path d="M 0 493 Q 355.5 230 711 400 Q 1066.5 570 1422 493" stroke-dasharray="7 41" opacity="0.76"></path><path d="M 0 476 Q 355.5 230 711 400 Q 1066.5 570 1422 476" stroke-dasharray="30 4" opacity="0.91"></path><path d="M 0 459 Q 355.5 230 711 400 Q 1066.5 570 1422 459" stroke-dasharray="16 23" opacity="0.86"></path><path d="M 0 442 Q 355.5 230 711 400 Q 1066.5 570 1422 442" stroke-dasharray="8 67" opacity="0.39"></path><path d="M 0 425 Q 355.5 230 711 400 Q 1066.5 570 1422 425" stroke-dasharray="59 59" opacity="0.78"></path><path d="M 0 408 Q 355.5 230 711 400 Q 1066.5 570 1422 408" stroke-dasharray="43 15" opacity="0.77"></path><path d="M 0 391 Q 355.5 230 711 400 Q 1066.5 570 1422 391" stroke-dasharray="26 27" opacity="0.50"></path><path d="M 0 374 Q 355.5 230 711 400 Q 1066.5 570 1422 374" stroke-dasharray="25 63" opacity="0.46"></path><path d="M 0 357 Q 355.5 230 711 400 Q 1066.5 570 1422 357" stroke-dasharray="8 36" opacity="0.37"></path><path d="M 0 340 Q 355.5 230 711 400 Q 1066.5 570 1422 340" stroke-dasharray="50 44" opacity="0.76"></path><path d="M 0 323 Q 355.5 230 711 400 Q 1066.5 570 1422 323" stroke-dasharray="67 53" opacity="0.18"></path><path d="M 0 306 Q 355.5 230 711 400 Q 1066.5 570 1422 306" stroke-dasharray="8 54" opacity="0.91"></path><path d="M 0 289 Q 355.5 230 711 400 Q 1066.5 570 1422 289" stroke-dasharray="10 6" opacity="0.92"></path><path d="M 0 272 Q 355.5 230 711 400 Q 1066.5 570 1422 272" stroke-dasharray="56 2" opacity="0.75"></path><path d="M 0 255 Q 355.5 230 711 400 Q 1066.5 570 1422 255" stroke-dasharray="20 48" opacity="0.31"></path><path d="M 0 238 Q 355.5 230 711 400 Q 1066.5 570 1422 238" stroke-dasharray="35 39" opacity="0.23"></path><path d="M 0 221 Q 355.5 230 711 400 Q 1066.5 570 1422 221" stroke-dasharray="20 39" opacity="0.57"></path><path d="M 0 204 Q 355.5 230 711 400 Q 1066.5 570 1422 204" stroke-dasharray="16 55" opacity="0.90"></path><path d="M 0 187 Q 355.5 230 711 400 Q 1066.5 570 1422 187" stroke-dasharray="26 41" opacity="0.41"></path><path d="M 0 170 Q 355.5 230 711 400 Q 1066.5 570 1422 170" stroke-dasharray="17 45" opacity="0.55"></path><path d="M 0 153 Q 355.5 230 711 400 Q 1066.5 570 1422 153" stroke-dasharray="5 4" opacity="0.76"></path><path d="M 0 136 Q 355.5 230 711 400 Q 1066.5 570 1422 136" stroke-dasharray="7 30" opacity="0.81"></path><path d="M 0 119 Q 355.5 230 711 400 Q 1066.5 570 1422 119" stroke-dasharray="53 44" opacity="0.78"></path><path d="M 0 102 Q 355.5 230 711 400 Q 1066.5 570 1422 102" stroke-dasharray="24 1" opacity="0.39"></path><path d="M 0 85 Q 355.5 230 711 400 Q 1066.5 570 1422 85" stroke-dasharray="1 22" opacity="0.09"></path><path d="M 0 68 Q 355.5 230 711 400 Q 1066.5 570 1422 68" stroke-dasharray="18 37" opacity="0.16"></path><path d="M 0 51 Q 355.5 230 711 400 Q 1066.5 570 1422 51" stroke-dasharray="61 1" opacity="0.13"></path><path d="M 0 34 Q 355.5 230 711 400 Q 1066.5 570 1422 34" stroke-dasharray="69 38" opacity="0.35"></path></g></svg>