<svg xmlns="http://www.w3.org/2000/svg" version="1.1" xmlns:xlink="http://www.w3.org/1999/xlink" xmlns:svgjs="http://svgjs.dev/svgjs" viewBox="0 0 1422 800"><defs><linearGradient x1="50%" y1="0%" x2="50%" y2="100%" id="ssscribble-grad"><stop stop-color="hsl(89, 73%, 48%)" stop-opacity="1" offset="0%"></stop><stop stop-color="hsl(90, 69%, 72%)" stop-opacity="1" offset="100%"></stop></linearGradient></defs><g fill="none" stroke-width="1.25" stroke="url(#ssscribble-grad)" stroke-linecap="round" stroke-dasharray="1"><path d="M1001.36 157.1C1196.39 184.37 1328.64 211.85 1322.13 241.48 1186.28 274.1 1000.18 314.34 861.52 366.41 827.69 426.92 901.3 503.52 1029.79 595.27 1161.7 689.33 1234.12 786.49 1230.01 872.75 1157.31 931.38 1041.79 953.73 918.36 928.94 797.39 864.55 704.81 766.62 642.05 658.13 599.55 575.82 575.25 539.69 557.46 568.95 545.58 661.85 528.47 795.02 501.21 928.23 473.94 1017.83 437.79 1032.27 398.24 972.31 364.61 858.24 339.31 723.92 334.54 605.54 350.05 526.36 397.72 500.47 476.66 522.55 558.07 584.92 634.44 663.18 671.4 737.04 639.76 802.64 535.02 841.48 374.71 852.65 217.82 842.83 119.76 812.36 133.6 770.38 252.27 718.64 422.85 666.07 548.18 619 544.17 570.18 406.39 530.82 211.36 503.55 83.8 476.28 106.39 462.39 255.92 459.78 506.07 456.91 391.15 450.38 200.18 410.95 155.42 357.76 202.17 279.77 311.85 178.43 455.83 68.83 588.96 -41.75 687.22 -132.52 749.56 -182.99 772.86 -181.56 772.92 -122.38 753.36 -24 733.53 94.78 724.82 198.34 713.73 247.79 720.39 227.85 747.66 138.27 774.92 5.07 821.5 -122.58 884.01 -204.98 944.15 -223.74 1013.58 -172.1 1080.41 -69.81 1127.62 58.67 1149.24 181.06 1128.94 273.84 1072.72 327.03 978.74 337.02 870.5 314.13 796.54 263.61 782.1 205.6 855.24 153.57 1000.22 103.85 1173.4 72.15 1299.5 58.9 1315.32 54.08 1208.22 63.45 1029.92 82.26 890.89 104.05 873.78 129.83 1001.29 157.09Q1001.36 157.1 1001.36 157.1" opacity="0.82"></path><path d="M961.86 243.39C1137.96 267.93 1271.65 301.94 1299.36 345.32 1213.75 389.98 1056.79 445.92 900.07 512.68 798.9 580.38 785.87 656.19 848.25 734.25 960.97 802.35 1073.45 859.3 1151.05 893.99 1184.71 900.55 1164.32 873.77 1105.57 812.78 1017.83 732.94 922.81 640.9 835.72 557.04 749.65 507.51 680.76 502.73 629.1 551.46 580.6 646.95 544.77 769.62 520.23 888.73 495.68 972.33 483.6 995.8 485.81 957.45 491.19 869.41 515.43 753.44 558.97 636.76 603.52 538.36 658.13 475.8 708.05 452.92 728.97 468.67 714.12 511.54 648.3 567.04 538.54 632.31 396.96 688.86 258.68 729.72 170.74 760.96 161.76 773.4 244.95 770.21 383.67 758.56 526.67 737.63 602.8 712.38 565.63 684.69 426.96 657.38 250.86 632.84 130 608.3 129.23 587.68 240.85 569.09 409.99 548.05 557.38 524.34 625.77 493.46 596.95 454.11 495.36 401.26 371.47 332.2 261.88 253.51 209.91 161.73 221.89 64.29 289.22 -23.36 391.16 -95.33 500.89 -136.64 612.29 -139.32 703.01 -98.77 769.78 -18.37 822 80.3 856.82 182.3 882.34 260.88 902.86 289.77 923.46 261.35 948 177.77 972.55 58.66 999.87 -59.03 1025.63 -145.06 1046.4 -184.34 1056.22 -165.61 1046.53 -98.09 1022.29 3.74 971.99 117.8 898.41 223.2 826.51 309.75 759.81 365.63 724.64 391.24 744.83 388.72 825.9 367 961.05 336.73 1110.49 296.5 1234.08 261.1 1280.89 235.93 1230.5 211.7 1097.07 200.41 937.41 202.03 835.26 204.93 841 218.84 961.86 243.39Q961.86 243.39 961.86 243.39" opacity="0.23"></path><path d="M922.36 433.92C1079.05 455.74 1209.15 488.31 1262.67 530.06 1225.13 571.27 1111.96 620.24 968.12 673.6 835.15 722.61 753.2 770.24 734.69 810.04 776.72 836.28 856.24 845.5 944.82 832.04 1031.48 799.44 1089.88 744.15 1115.2 671.07 1113.84 596.83 1086.31 526.13 1044.38 474.07 990.16 456.65 935.71 477.81 888.77 539.6 839.98 633.43 803.27 744.16 781.45 849.23 759.64 926.11 753.75 956.13 761.4 936.61 767.19 874.27 781.96 781.65 798.37 677.6 802.5 575.72 794.1 492.4 761.84 435.73 702.89 407.7 613.18 406.92 497.92 425.97 380.75 463.15 275.37 505.76 210.63 545.73 206.42 587.49 268.81 618.82 385.79 637.83 513.63 653.52 614.39 657.61 643.51 651.58 581.57 644.03 447.05 628.94 290.36 607.12 177.75 585.31 158.17 557.8 232.86 524.2 370.96 489.1 519.31 445.32 628.27 391.82 670.69 335.01 641.22 267.76 562.04 192.37 454.14 118.79 356.76 44.86 292.3 -20.91 263.9 -68.56 278.76 -93.64 324.85 -88.33 395.5 -54.38 474.77 9.36 550.15 95.24 627.74 183.3 692.49 263.51 742.29 317.43 790.54 328.56 825.6 294.13 847.42 217.27 869.23 112.2 876.77 5.89 869.66 -79.53 861.01 -132.91 835.94 -141.67 796.16 -108.27 758.58 -40.22 715.24 50.04 678.21 146.99 665.74 242.79 682.2 323.95 739.19 385.15 832.25 427.2 955.49 449.3 1086.1 456.68 1188 450.51 1237.03 438.8 1210.61 427.59 1117.64 412.04 981.7 402.76 852.02 402.69 785.75 402.08 809.75 412.11 922.36 433.92Q922.36 433.92 922.36 433.92" opacity="0.58"></path><path d="M882.79 601.86C1019.72 620.95 1141.68 644.98 1211.95 672.28 1215.45 698.24 1151.56 724.82 1043.5 748.63 916.32 767.1 802.78 777.88 723.97 777.01 687.42 766.22 694.06 740.3 731.53 698.55 793.84 649.55 860.41 590.3 918.43 527.36 988.85 453.88 1025.82 444.26 1008.71 532.6 991.67 620.97 972.32 718.6 953.23 809.72 934.14 879.16 916.22 913.28 897.27 909.26 875.31 870.69 846.72 803.59 806.75 719.89 757.68 628.2 691.92 541.23 609.24 467.58 521.8 409.65 427.83 371.88 340.5 352.6 278.02 350.42 248.74 360.21 265.41 376.15 324.35 400.03 420.77 422.62 533.96 439.94 628.02 458.76 681.05 469.39 670.19 470.42 592.55 471.37 466.72 462.6 329.79 443.51 226.94 424.42 193.47 395.92 234.65 358.97 335.45 321.94 464.76 276.59 586.37 224.69 675.96 174.29 714.68 120.27 703.83 66.96 649.57 21.61 572.96 -15.58 494.39 -38.42 418.81 -44.16 365.87 -29.02 338.74 9.03 331.2 62.8 345.04 132.65 372.08 210.34 409.49 280.05 449.61 336.3 485.98 367.49 524.45 364.15 554.59 326.16 573.68 256.72 592.77 165.6 599.9 71.84 597.42 -9.15 594.36 -84.7 602.17 -33.1 647.93 68.81 704.48 151.62 784.82 233.5 885.42 307.52 989.01 374.29 1088.25 427.62 1162.38 467.82 1193.11 498.11 1171.51 518.77 1095.91 533.38 988.3 542.65 869.85 550.8 776.41 560.83 742.6 569.54 779.94 582.78 882.79 601.86Q882.79 601.86 882.79 601.86" opacity="0.53"></path><path d="M842.56 635.31C1073.51 668.03 1183.52 688.41 1102.83 686.1 901.76 671.23 719.39 617.82 636.41 529.64 652.15 449.19 719.82 383.88 775.47 379.55 834.74 459.49 849.38 608.77 816.66 770.11 783.93 869.43 706.95 856.88 590.97 755.14 478.61 605.07 359.87 462.27 301.24 362.41 341.33 304.49 489 285.59 666.07 280.55 722.78 289.21 599.51 283.55 368.56 250.82 233.06 218.1 313.83 161.42 517.52 96.05 703.94 44.38 761.67 12.21 710.13 27.24 590.63 84.22 491.39 192.31 447.32 318.39 425.65 396.14 441.31 395.43 474.03 296.11 506.75 134.77 553.44 -1.24 631.82 -57.19 732.6 -28.87 882.91 71.13 1045.3 194.47 1139.73 325.54 1116.7 430.02 954.28 501.6 774.56 560.62 707.06 602.59 842.56 635.31Q842.56 635.31 842.56 635.31" opacity="0.54"></path><path d="M803.86 512.26C998.88 539.52 1126.55 539.44 1124.13 513.18 1008.17 485.28 843.39 433.82 704.53 373.9 607.49 337.66 568.85 329 560.19 370.55 572.25 464.42 573.78 597.53 546.52 730.73 519.25 820.33 465.75 832.51 406.43 776.13 367.84 671.7 363.92 550.26 425.23 442.76 528.35 349.11 664.2 284.15 760.17 242.05 742.6 210.51 603.88 184.86 408.86 157.59 281.3 130.32 304.38 104.02 441.86 88.3 622.15 83.15 757.16 105.54 814.19 163.46 801.73 235.21 752.93 327.73 711.36 412.17 662.76 448.56 648.18 425.33 675.45 335.73 702.69 202.53 769.23 80.47 865.08 6.59 953.91 -14.97 1045.28 22.61 1093.5 94.59 1072.23 190.25 966.16 284.27 805.86 359.42 688.35 432.94 676.28 484.98 803.79 512.25Q803.86 512.26 803.86 512.26" opacity="0.20"></path><path d="M764.29 314.34C921 336.16 1046.41 335.96 1096.76 319.43 1070.43 307.01 981.08 287.77 871.33 274.89 752.6 283.75 657.75 317.76 594.06 383.84 540.8 475.74 506.25 586.15 484.44 691.22 462.62 768.1 455.6 795.71 471.06 776.38 496.94 720.21 557.74 640 647.88 556.2 729.04 468.32 795.25 393.39 805.59 337.33 739.25 284.86 605 247.42 448.29 225.6 335.72 203.78 317.74 199.66 385.69 214.33 511.01 232.58 646.55 273.46 753.83 332.75 832.57 387.96 872.43 445.04 889.95 485.21 893.43 488.55 899.94 452.1 921.76 375.22 943.58 270.15 978.62 168.58 1012.96 92.68 1033.24 42.58 1027.42 31.71 977.28 51.44 898.59 92.92 786.19 146.2 676.85 196.43 624.89 250.76 651.72 292.52 764.29 314.34Q764.29 314.34 764.29 314.34" opacity="0.95"></path><path d="M724.86 173.45C955.75 206.17 1057.28 220.28 1005.29 257.08 867.48 340.27 742.7 490.4 709.98 651.73 677.26 751.05 742.78 734.63 837.7 654.41 846.81 539.29 718.75 442.44 487.86 409.72 351.67 376.99 430.25 414.59 589.15 486.83 763.56 524.16 867.78 514.05 900.51 414.73 933.23 253.4 888.26 129.8 756.74 89.5 640.72 95.58 588.67 140.73 724.86 173.45Q724.86 173.45 724.86 173.45" opacity="0.17"></path><path d="M685.29 183.36C842.02 205.18 957.86 249.35 997.26 317 994.1 397.39 958.68 507.15 936.87 612.22 915.05 689.11 910.96 711.78 885.53 694.1 817.54 654.54 684.02 609.16 527.29 587.34 414.72 565.53 400.02 571.41 450.21 582.37 538.26 571.46 616.85 531.11 638.67 454.22 660.49 349.15 621.4 257.07 561.94 205.27 540.34 166.21 572.72 161.55 685.29 183.36Q685.29 183.36 685.29 183.36" opacity="0.10"></path></g></svg>