<svg xmlns="http://www.w3.org/2000/svg" version="1.1" xmlns:xlink="http://www.w3.org/1999/xlink" xmlns:svgjs="http://svgjs.dev/svgjs" viewBox="0 0 1422 800"><g><circle r="55" cx="0" cy="0" fill="hsl(84, 61%, 60%)"></circle><circle r="55" cx="0" cy="110" fill="hsl(71, 61%, 60%)"></circle><circle r="55" cx="0" cy="220" fill="hsl(60, 61%, 60%)"></circle><circle r="55" cx="0" cy="330" fill="hsl(67, 61%, 60%)"></circle><circle r="55" cx="0" cy="440" fill="hsl(81, 61%, 60%)"></circle><circle r="55" cx="0" cy="550" fill="hsl(81, 61%, 60%)"></circle><circle r="55" cx="0" cy="660" fill="hsl(67, 61%, 60%)"></circle><circle r="55" cx="0" cy="770" fill="hsl(54, 61%, 60%)"></circle><circle r="55" cx="0" cy="880" fill="hsl(55, 61%, 60%)"></circle><circle r="55" cx="110" cy="0" fill="hsl(84, 61%, 60%)"></circle><circle r="55" cx="110" cy="110" fill="hsl(71, 61%, 60%)"></circle><circle r="55" cx="110" cy="220" fill="hsl(61, 61%, 60%)"></circle><circle r="55" cx="110" cy="330" fill="hsl(66, 61%, 60%)"></circle><circle r="55" cx="110" cy="440" fill="hsl(77, 61%, 60%)"></circle><circle r="55" cx="110" cy="550" fill="hsl(78, 61%, 60%)"></circle><circle r="55" cx="110" cy="660" fill="hsl(68, 61%, 60%)"></circle><circle r="55" cx="110" cy="770" fill="hsl(59, 61%, 60%)"></circle><circle r="55" cx="110" cy="880" fill="hsl(64, 61%, 60%)"></circle><circle r="55" cx="220" cy="0" fill="hsl(83, 61%, 60%)"></circle><circle r="55" cx="220" cy="110" fill="hsl(74, 61%, 60%)"></circle><circle r="55" cx="220" cy="220" fill="hsl(65, 61%, 60%)"></circle><circle r="55" cx="220" cy="330" fill="hsl(67, 61%, 60%)"></circle><circle r="55" cx="220" cy="440" fill="hsl(75, 61%, 60%)"></circle><circle r="55" cx="220" cy="550" fill="hsl(81, 61%, 60%)"></circle><circle r="55" cx="220" cy="660" fill="hsl(80, 61%, 60%)"></circle><circle r="55" cx="220" cy="770" fill="hsl(77, 61%, 60%)"></circle><circle r="55" cx="220" cy="880" fill="hsl(80, 61%, 60%)"></circle><circle r="55" cx="330" cy="0" fill="hsl(78, 61%, 60%)"></circle><circle r="55" cx="330" cy="110" fill="hsl(75, 61%, 60%)"></circle><circle r="55" cx="330" cy="220" fill="hsl(67, 61%, 60%)"></circle><circle r="55" cx="330" cy="330" fill="hsl(65, 61%, 60%)"></circle><circle r="55" cx="330" cy="440" fill="hsl(73, 61%, 60%)"></circle><circle r="55" cx="330" cy="550" fill="hsl(85, 61%, 60%)"></circle><circle r="55" cx="330" cy="660" fill="hsl(94, 61%, 60%)"></circle><circle r="55" cx="330" cy="770" fill="hsl(95, 61%, 60%)"></circle><circle r="55" cx="330" cy="880" fill="hsl(90, 61%, 60%)"></circle><circle r="55" cx="440" cy="0" fill="hsl(70, 61%, 60%)"></circle><circle r="55" cx="440" cy="110" fill="hsl(70, 61%, 60%)"></circle><circle r="55" cx="440" cy="220" fill="hsl(65, 61%, 60%)"></circle><circle r="55" cx="440" cy="330" fill="hsl(62, 61%, 60%)"></circle><circle r="55" cx="440" cy="440" fill="hsl(70, 61%, 60%)"></circle><circle r="55" cx="440" cy="550" fill="hsl(87, 61%, 60%)"></circle><circle r="55" cx="440" cy="660" fill="hsl(102, 61%, 60%)"></circle><circle r="55" cx="440" cy="770" fill="hsl(103, 61%, 60%)"></circle><circle r="55" cx="440" cy="880" fill="hsl(91, 61%, 60%)"></circle><circle r="55" cx="550" cy="0" fill="hsl(67, 61%, 60%)"></circle><circle r="55" cx="550" cy="110" fill="hsl(68, 61%, 60%)"></circle><circle r="55" cx="550" cy="220" fill="hsl(63, 61%, 60%)"></circle><circle r="55" cx="550" cy="330" fill="hsl(60, 61%, 60%)"></circle><circle r="55" cx="550" cy="440" fill="hsl(68, 61%, 60%)"></circle><circle r="55" cx="550" cy="550" fill="hsl(87, 61%, 60%)"></circle><circle r="55" cx="550" cy="660" fill="hsl(104, 61%, 60%)"></circle><circle r="55" cx="550" cy="770" fill="hsl(105, 61%, 60%)"></circle><circle r="55" cx="550" cy="880" fill="hsl(91, 61%, 60%)"></circle><circle r="55" cx="660" cy="0" fill="hsl(77, 61%, 60%)"></circle><circle r="55" cx="660" cy="110" fill="hsl(76, 61%, 60%)"></circle><circle r="55" cx="660" cy="220" fill="hsl(69, 61%, 60%)"></circle><circle r="55" cx="660" cy="330" fill="hsl(64, 61%, 60%)"></circle><circle r="55" cx="660" cy="440" fill="hsl(71, 61%, 60%)"></circle><circle r="55" cx="660" cy="550" fill="hsl(87, 61%, 60%)"></circle><circle r="55" cx="660" cy="660" fill="hsl(100, 61%, 60%)"></circle><circle r="55" cx="660" cy="770" fill="hsl(103, 61%, 60%)"></circle><circle r="55" cx="660" cy="880" fill="hsl(94, 61%, 60%)"></circle><circle r="55" cx="770" cy="0" fill="hsl(91, 61%, 60%)"></circle><circle r="55" cx="770" cy="110" fill="hsl(87, 61%, 60%)"></circle><circle r="55" cx="770" cy="220" fill="hsl(78, 61%, 60%)"></circle><circle r="55" cx="770" cy="330" fill="hsl(73, 61%, 60%)"></circle><circle r="55" cx="770" cy="440" fill="hsl(77, 61%, 60%)"></circle><circle r="55" cx="770" cy="550" fill="hsl(86, 61%, 60%)"></circle><circle r="55" cx="770" cy="660" fill="hsl(97, 61%, 60%)"></circle><circle r="55" cx="770" cy="770" fill="hsl(102, 61%, 60%)"></circle><circle r="55" cx="770" cy="880" fill="hsl(97, 61%, 60%)"></circle><circle r="55" cx="880" cy="0" fill="hsl(96, 61%, 60%)"></circle><circle r="55" cx="880" cy="110" fill="hsl(89, 61%, 60%)"></circle><circle r="55" cx="880" cy="220" fill="hsl(80, 61%, 60%)"></circle><circle r="55" cx="880" cy="330" fill="hsl(79, 61%, 60%)"></circle><circle r="55" cx="880" cy="440" fill="hsl(85, 61%, 60%)"></circle><circle r="55" cx="880" cy="550" fill="hsl(90, 61%, 60%)"></circle><circle r="55" cx="880" cy="660" fill="hsl(97, 61%, 60%)"></circle><circle r="55" cx="880" cy="770" fill="hsl(103, 61%, 60%)"></circle><circle r="55" cx="880" cy="880" fill="hsl(101, 61%, 60%)"></circle><circle r="55" cx="990" cy="0" fill="hsl(87, 61%, 60%)"></circle><circle r="55" cx="990" cy="110" fill="hsl(79, 61%, 60%)"></circle><circle r="55" cx="990" cy="220" fill="hsl(74, 61%, 60%)"></circle><circle r="55" cx="990" cy="330" fill="hsl(81, 61%, 60%)"></circle><circle r="55" cx="990" cy="440" fill="hsl(92, 61%, 60%)"></circle><circle r="55" cx="990" cy="550" fill="hsl(99, 61%, 60%)"></circle><circle r="55" cx="990" cy="660" fill="hsl(103, 61%, 60%)"></circle><circle r="55" cx="990" cy="770" fill="hsl(107, 61%, 60%)"></circle><circle r="55" cx="990" cy="880" fill="hsl(104, 61%, 60%)"></circle><circle r="55" cx="1100" cy="0" fill="hsl(71, 61%, 60%)"></circle><circle r="55" cx="1100" cy="110" fill="hsl(65, 61%, 60%)"></circle><circle r="55" cx="1100" cy="220" fill="hsl(66, 61%, 60%)"></circle><circle r="55" cx="1100" cy="330" fill="hsl(80, 61%, 60%)"></circle><circle r="55" cx="1100" cy="440" fill="hsl(97, 61%, 60%)"></circle><circle r="55" cx="1100" cy="550" fill="hsl(106, 61%, 60%)"></circle><circle r="55" cx="1100" cy="660" fill="hsl(108, 61%, 60%)"></circle><circle r="55" cx="1100" cy="770" fill="hsl(108, 61%, 60%)"></circle><circle r="55" cx="1100" cy="880" fill="hsl(103, 61%, 60%)"></circle><circle r="55" cx="1210" cy="0" fill="hsl(60, 61%, 60%)"></circle><circle r="55" cx="1210" cy="110" fill="hsl(59, 61%, 60%)"></circle><circle r="55" cx="1210" cy="220" fill="hsl(63, 61%, 60%)"></circle><circle r="55" cx="1210" cy="330" fill="hsl(80, 61%, 60%)"></circle><circle r="55" cx="1210" cy="440" fill="hsl(99, 61%, 60%)"></circle><circle r="55" cx="1210" cy="550" fill="hsl(108, 61%, 60%)"></circle><circle r="55" cx="1210" cy="660" fill="hsl(106, 61%, 60%)"></circle><circle r="55" cx="1210" cy="770" fill="hsl(101, 61%, 60%)"></circle><circle r="55" cx="1210" cy="880" fill="hsl(96, 61%, 60%)"></circle><circle r="55" cx="1320" cy="0" fill="hsl(59, 61%, 60%)"></circle><circle r="55" cx="1320" cy="110" fill="hsl(61, 61%, 60%)"></circle><circle r="55" cx="1320" cy="220" fill="hsl(66, 61%, 60%)"></circle><circle r="55" cx="1320" cy="330" fill="hsl(81, 61%, 60%)"></circle><circle r="55" cx="1320" cy="440" fill="hsl(97, 61%, 60%)"></circle><circle r="55" cx="1320" cy="550" fill="hsl(103, 61%, 60%)"></circle><circle r="55" cx="1320" cy="660" fill="hsl(96, 61%, 60%)"></circle><circle r="55" cx="1320" cy="770" fill="hsl(85, 61%, 60%)"></circle><circle r="55" cx="1320" cy="880" fill="hsl(79, 61%, 60%)"></circle><circle r="55" cx="1430" cy="0" fill="hsl(64, 61%, 60%)"></circle><circle r="55" cx="1430" cy="110" fill="hsl(67, 61%, 60%)"></circle><circle r="55" cx="1430" cy="220" fill="hsl(72, 61%, 60%)"></circle><circle r="55" cx="1430" cy="330" fill="hsl(82, 61%, 60%)"></circle><circle r="55" cx="1430" cy="440" fill="hsl(94, 61%, 60%)"></circle><circle r="55" cx="1430" cy="550" fill="hsl(98, 61%, 60%)"></circle><circle r="55" cx="1430" cy="660" fill="hsl(89, 61%, 60%)"></circle><circle r="55" cx="1430" cy="770" fill="hsl(75, 61%, 60%)"></circle><circle r="55" cx="1430" cy="880" fill="hsl(66, 61%, 60%)"></circle><circle r="55" cx="1540" cy="0" fill="hsl(64, 61%, 60%)"></circle><circle r="55" cx="1540" cy="110" fill="hsl(67, 61%, 60%)"></circle><circle r="55" cx="1540" cy="220" fill="hsl(72, 61%, 60%)"></circle><circle r="55" cx="1540" cy="330" fill="hsl(82, 61%, 60%)"></circle><circle r="55" cx="1540" cy="440" fill="hsl(94, 61%, 60%)"></circle><circle r="55" cx="1540" cy="550" fill="hsl(98, 61%, 60%)"></circle><circle r="55" cx="1540" cy="660" fill="hsl(89, 61%, 60%)"></circle><circle r="55" cx="1540" cy="770" fill="hsl(75, 61%, 60%)"></circle><circle r="55" cx="1540" cy="880" fill="hsl(66, 61%, 60%)"></circle><circle r="55" cx="1650" cy="0" fill="hsl(64, 61%, 60%)"></circle><circle r="55" cx="1650" cy="110" fill="hsl(67, 61%, 60%)"></circle><circle r="55" cx="1650" cy="220" fill="hsl(72, 61%, 60%)"></circle><circle r="55" cx="1650" cy="330" fill="hsl(82, 61%, 60%)"></circle><circle r="55" cx="1650" cy="440" fill="hsl(94, 61%, 60%)"></circle><circle r="55" cx="1650" cy="550" fill="hsl(98, 61%, 60%)"></circle><circle r="55" cx="1650" cy="660" fill="hsl(89, 61%, 60%)"></circle><circle r="55" cx="1650" cy="770" fill="hsl(75, 61%, 60%)"></circle><circle r="55" cx="1650" cy="880" fill="hsl(66, 61%, 60%)"></circle><circle r="55" cx="1760" cy="0" fill="hsl(64, 61%, 60%)"></circle><circle r="55" cx="1760" cy="110" fill="hsl(67, 61%, 60%)"></circle><circle r="55" cx="1760" cy="220" fill="hsl(72, 61%, 60%)"></circle><circle r="55" cx="1760" cy="330" fill="hsl(82, 61%, 60%)"></circle><circle r="55" cx="1760" cy="440" fill="hsl(94, 61%, 60%)"></circle><circle r="55" cx="1760" cy="550" fill="hsl(98, 61%, 60%)"></circle><circle r="55" cx="1760" cy="660" fill="hsl(89, 61%, 60%)"></circle><circle r="55" cx="1760" cy="770" fill="hsl(75, 61%, 60%)"></circle><circle r="55" cx="1760" cy="880" fill="hsl(66, 61%, 60%)"></circle></g><g transform="matrix(1,0,0,1,-55,0)"><circle r="55" cx="0" cy="55" fill="hsl(77, 61%, 60%)"></circle><circle r="55" cx="0" cy="165" fill="hsl(62, 61%, 60%)"></circle><circle r="55" cx="0" cy="275" fill="hsl(63, 61%, 60%)"></circle><circle r="55" cx="0" cy="385" fill="hsl(77, 61%, 60%)"></circle><circle r="55" cx="0" cy="495" fill="hsl(83, 61%, 60%)"></circle><circle r="55" cx="0" cy="605" fill="hsl(73, 61%, 60%)"></circle><circle r="55" cx="0" cy="715" fill="hsl(57, 61%, 60%)"></circle><circle r="55" cx="0" cy="825" fill="hsl(52, 61%, 60%)"></circle><circle r="55" cx="110" cy="55" fill="hsl(77, 61%, 60%)"></circle><circle r="55" cx="110" cy="165" fill="hsl(63, 61%, 60%)"></circle><circle r="55" cx="110" cy="275" fill="hsl(63, 61%, 60%)"></circle><circle r="55" cx="110" cy="385" fill="hsl(73, 61%, 60%)"></circle><circle r="55" cx="110" cy="495" fill="hsl(79, 61%, 60%)"></circle><circle r="55" cx="110" cy="605" fill="hsl(71, 61%, 60%)"></circle><circle r="55" cx="110" cy="715" fill="hsl(61, 61%, 60%)"></circle><circle r="55" cx="110" cy="825" fill="hsl(60, 61%, 60%)"></circle><circle r="55" cx="220" cy="55" fill="hsl(79, 61%, 60%)"></circle><circle r="55" cx="220" cy="165" fill="hsl(67, 61%, 60%)"></circle><circle r="55" cx="220" cy="275" fill="hsl(65, 61%, 60%)"></circle><circle r="55" cx="220" cy="385" fill="hsl(72, 61%, 60%)"></circle><circle r="55" cx="220" cy="495" fill="hsl(80, 61%, 60%)"></circle><circle r="55" cx="220" cy="605" fill="hsl(81, 61%, 60%)"></circle><circle r="55" cx="220" cy="715" fill="hsl(78, 61%, 60%)"></circle><circle r="55" cx="220" cy="825" fill="hsl(78, 61%, 60%)"></circle><circle r="55" cx="330" cy="55" fill="hsl(77, 61%, 60%)"></circle><circle r="55" cx="330" cy="165" fill="hsl(70, 61%, 60%)"></circle><circle r="55" cx="330" cy="275" fill="hsl(65, 61%, 60%)"></circle><circle r="55" cx="330" cy="385" fill="hsl(70, 61%, 60%)"></circle><circle r="55" cx="330" cy="495" fill="hsl(81, 61%, 60%)"></circle><circle r="55" cx="330" cy="605" fill="hsl(92, 61%, 60%)"></circle><circle r="55" cx="330" cy="715" fill="hsl(96, 61%, 60%)"></circle><circle r="55" cx="330" cy="825" fill="hsl(91, 61%, 60%)"></circle><circle r="55" cx="440" cy="55" fill="hsl(70, 61%, 60%)"></circle><circle r="55" cx="440" cy="165" fill="hsl(67, 61%, 60%)"></circle><circle r="55" cx="440" cy="275" fill="hsl(62, 61%, 60%)"></circle><circle r="55" cx="440" cy="385" fill="hsl(65, 61%, 60%)"></circle><circle r="55" cx="440" cy="495" fill="hsl(81, 61%, 60%)"></circle><circle r="55" cx="440" cy="605" fill="hsl(98, 61%, 60%)"></circle><circle r="55" cx="440" cy="715" fill="hsl(104, 61%, 60%)"></circle><circle r="55" cx="440" cy="825" fill="hsl(96, 61%, 60%)"></circle><circle r="55" cx="550" cy="55" fill="hsl(68, 61%, 60%)"></circle><circle r="55" cx="550" cy="165" fill="hsl(65, 61%, 60%)"></circle><circle r="55" cx="550" cy="275" fill="hsl(60, 61%, 60%)"></circle><circle r="55" cx="550" cy="385" fill="hsl(64, 61%, 60%)"></circle><circle r="55" cx="550" cy="495" fill="hsl(81, 61%, 60%)"></circle><circle r="55" cx="550" cy="605" fill="hsl(99, 61%, 60%)"></circle><circle r="55" cx="550" cy="715" fill="hsl(107, 61%, 60%)"></circle><circle r="55" cx="550" cy="825" fill="hsl(97, 61%, 60%)"></circle><circle r="55" cx="660" cy="55" fill="hsl(77, 61%, 60%)"></circle><circle r="55" cx="660" cy="165" fill="hsl(71, 61%, 60%)"></circle><circle r="55" cx="660" cy="275" fill="hsl(65, 61%, 60%)"></circle><circle r="55" cx="660" cy="385" fill="hsl(67, 61%, 60%)"></circle><circle r="55" cx="660" cy="495" fill="hsl(81, 61%, 60%)"></circle><circle r="55" cx="660" cy="605" fill="hsl(97, 61%, 60%)"></circle><circle r="55" cx="660" cy="715" fill="hsl(104, 61%, 60%)"></circle><circle r="55" cx="660" cy="825" fill="hsl(98, 61%, 60%)"></circle><circle r="55" cx="770" cy="55" fill="hsl(89, 61%, 60%)"></circle><circle r="55" cx="770" cy="165" fill="hsl(81, 61%, 60%)"></circle><circle r="55" cx="770" cy="275" fill="hsl(74, 61%, 60%)"></circle><circle r="55" cx="770" cy="385" fill="hsl(75, 61%, 60%)"></circle><circle r="55" cx="770" cy="495" fill="hsl(83, 61%, 60%)"></circle><circle r="55" cx="770" cy="605" fill="hsl(93, 61%, 60%)"></circle><circle r="55" cx="770" cy="715" fill="hsl(101, 61%, 60%)"></circle><circle r="55" cx="770" cy="825" fill="hsl(100, 61%, 60%)"></circle><circle r="55" cx="880" cy="55" fill="hsl(93, 61%, 60%)"></circle><circle r="55" cx="880" cy="165" fill="hsl(82, 61%, 60%)"></circle><circle r="55" cx="880" cy="275" fill="hsl(79, 61%, 60%)"></circle><circle r="55" cx="880" cy="385" fill="hsl(83, 61%, 60%)"></circle><circle r="55" cx="880" cy="495" fill="hsl(88, 61%, 60%)"></circle><circle r="55" cx="880" cy="605" fill="hsl(95, 61%, 60%)"></circle><circle r="55" cx="880" cy="715" fill="hsl(102, 61%, 60%)"></circle><circle r="55" cx="880" cy="825" fill="hsl(103, 61%, 60%)"></circle><circle r="55" cx="990" cy="55" fill="hsl(83, 61%, 60%)"></circle><circle r="55" cx="990" cy="165" fill="hsl(74, 61%, 60%)"></circle><circle r="55" cx="990" cy="275" fill="hsl(78, 61%, 60%)"></circle><circle r="55" cx="990" cy="385" fill="hsl(89, 61%, 60%)"></circle><circle r="55" cx="990" cy="495" fill="hsl(97, 61%, 60%)"></circle><circle r="55" cx="990" cy="605" fill="hsl(102, 61%, 60%)"></circle><circle r="55" cx="990" cy="715" fill="hsl(106, 61%, 60%)"></circle><circle r="55" cx="990" cy="825" fill="hsl(107, 61%, 60%)"></circle><circle r="55" cx="1100" cy="55" fill="hsl(68, 61%, 60%)"></circle><circle r="55" cx="1100" cy="165" fill="hsl(64, 61%, 60%)"></circle><circle r="55" cx="1100" cy="275" fill="hsl(75, 61%, 60%)"></circle><circle r="55" cx="1100" cy="385" fill="hsl(92, 61%, 60%)"></circle><circle r="55" cx="1100" cy="495" fill="hsl(104, 61%, 60%)"></circle><circle r="55" cx="1100" cy="605" fill="hsl(108, 61%, 60%)"></circle><circle r="55" cx="1100" cy="715" fill="hsl(108, 61%, 60%)"></circle><circle r="55" cx="1100" cy="825" fill="hsl(106, 61%, 60%)"></circle><circle r="55" cx="1210" cy="55" fill="hsl(59, 61%, 60%)"></circle><circle r="55" cx="1210" cy="165" fill="hsl(61, 61%, 60%)"></circle><circle r="55" cx="1210" cy="275" fill="hsl(73, 61%, 60%)"></circle><circle r="55" cx="1210" cy="385" fill="hsl(93, 61%, 60%)"></circle><circle r="55" cx="1210" cy="495" fill="hsl(106, 61%, 60%)"></circle><circle r="55" cx="1210" cy="605" fill="hsl(107, 61%, 60%)"></circle><circle r="55" cx="1210" cy="715" fill="hsl(103, 61%, 60%)"></circle><circle r="55" cx="1210" cy="825" fill="hsl(98, 61%, 60%)"></circle><circle r="55" cx="1320" cy="55" fill="hsl(60, 61%, 60%)"></circle><circle r="55" cx="1320" cy="165" fill="hsl(64, 61%, 60%)"></circle><circle r="55" cx="1320" cy="275" fill="hsl(75, 61%, 60%)"></circle><circle r="55" cx="1320" cy="385" fill="hsl(92, 61%, 60%)"></circle><circle r="55" cx="1320" cy="495" fill="hsl(102, 61%, 60%)"></circle><circle r="55" cx="1320" cy="605" fill="hsl(99, 61%, 60%)"></circle><circle r="55" cx="1320" cy="715" fill="hsl(89, 61%, 60%)"></circle><circle r="55" cx="1320" cy="825" fill="hsl(81, 61%, 60%)"></circle><circle r="55" cx="1430" cy="55" fill="hsl(65, 61%, 60%)"></circle><circle r="55" cx="1430" cy="165" fill="hsl(70, 61%, 60%)"></circle><circle r="55" cx="1430" cy="275" fill="hsl(78, 61%, 60%)"></circle><circle r="55" cx="1430" cy="385" fill="hsl(90, 61%, 60%)"></circle><circle r="55" cx="1430" cy="495" fill="hsl(98, 61%, 60%)"></circle><circle r="55" cx="1430" cy="605" fill="hsl(93, 61%, 60%)"></circle><circle r="55" cx="1430" cy="715" fill="hsl(79, 61%, 60%)"></circle><circle r="55" cx="1430" cy="825" fill="hsl(68, 61%, 60%)"></circle><circle r="55" cx="1540" cy="55" fill="hsl(65, 61%, 60%)"></circle><circle r="55" cx="1540" cy="165" fill="hsl(70, 61%, 60%)"></circle><circle r="55" cx="1540" cy="275" fill="hsl(78, 61%, 60%)"></circle><circle r="55" cx="1540" cy="385" fill="hsl(90, 61%, 60%)"></circle><circle r="55" cx="1540" cy="495" fill="hsl(98, 61%, 60%)"></circle><circle r="55" cx="1540" cy="605" fill="hsl(93, 61%, 60%)"></circle><circle r="55" cx="1540" cy="715" fill="hsl(79, 61%, 60%)"></circle><circle r="55" cx="1540" cy="825" fill="hsl(68, 61%, 60%)"></circle><circle r="55" cx="1650" cy="55" fill="hsl(65, 61%, 60%)"></circle><circle r="55" cx="1650" cy="165" fill="hsl(70, 61%, 60%)"></circle><circle r="55" cx="1650" cy="275" fill="hsl(78, 61%, 60%)"></circle><circle r="55" cx="1650" cy="385" fill="hsl(90, 61%, 60%)"></circle><circle r="55" cx="1650" cy="495" fill="hsl(98, 61%, 60%)"></circle><circle r="55" cx="1650" cy="605" fill="hsl(93, 61%, 60%)"></circle><circle r="55" cx="1650" cy="715" fill="hsl(79, 61%, 60%)"></circle><circle r="55" cx="1650" cy="825" fill="hsl(68, 61%, 60%)"></circle><circle r="55" cx="1760" cy="55" fill="hsl(65, 61%, 60%)"></circle><circle r="55" cx="1760" cy="165" fill="hsl(70, 61%, 60%)"></circle><circle r="55" cx="1760" cy="275" fill="hsl(78, 61%, 60%)"></circle><circle r="55" cx="1760" cy="385" fill="hsl(90, 61%, 60%)"></circle><circle r="55" cx="1760" cy="495" fill="hsl(98, 61%, 60%)"></circle><circle r="55" cx="1760" cy="605" fill="hsl(93, 61%, 60%)"></circle><circle r="55" cx="1760" cy="715" fill="hsl(79, 61%, 60%)"></circle><circle r="55" cx="1760" cy="825" fill="hsl(68, 61%, 60%)"></circle></g></svg>