<svg xmlns="http://www.w3.org/2000/svg" version="1.1" xmlns:xlink="http://www.w3.org/1999/xlink" xmlns:svgjs="http://svgjs.dev/svgjs" viewBox="0 0 2400 800" opacity="1"><defs><linearGradient x1="50%" y1="0%" x2="50%" y2="100%" id="sssurf-grad"><stop stop-color="hsl(105, 69%, 40%)" stop-opacity="1" offset="0%"></stop><stop stop-color="hsl(105, 69%, 60%)" stop-opacity="1" offset="100%"></stop></linearGradient></defs><g fill="url(#sssurf-grad)" transform="matrix(1,0,0,1,8.247314453125,56.94791030883789)"><path d="M-10,10C47.63888888888889,14.791666666666668,153.47222222222223,37.166666666666664,266.6666666666667,33C379.86111111111114,28.833333333333332,422.2222222222223,-7.5,533.3333333333334,-10C644.4444444444445,-12.5,688.8888888888889,21.208333333333332,800,21C911.1111111111111,20.791666666666668,955.5555555555557,-14.333333333333332,1066.6666666666667,-11C1177.7777777777778,-7.666666666666667,1222.2222222222224,36.583333333333336,1333.3333333333335,37C1444.4444444444446,37.416666666666664,1488.888888888889,-6.291666666666667,1600,-9C1711.111111111111,-11.708333333333332,1755.5555555555557,24.208333333333332,1866.6666666666667,24C1977.7777777777778,23.791666666666668,2022.2222222222224,-14.166666666666668,2133.3333333333335,-10C2244.4444444444443,-5.833333333333333,2292.3611111111113,-41.41666666666666,2400,44C2507.6388888888887,129.41666666666666,3254.1666666666665,221.66666666666669,2650,400C2045.8333333333335,578.3333333333333,156.25,795.8333333333334,-500,900" transform="matrix(1,0,0,1,0,50)" opacity="0.05"></path><path d="M-10,10C47.63888888888889,14.791666666666668,153.47222222222223,37.166666666666664,266.6666666666667,33C379.86111111111114,28.833333333333332,422.2222222222223,-7.5,533.3333333333334,-10C644.4444444444445,-12.5,688.8888888888889,21.208333333333332,800,21C911.1111111111111,20.791666666666668,955.5555555555557,-14.333333333333332,1066.6666666666667,-11C1177.7777777777778,-7.666666666666667,1222.2222222222224,36.583333333333336,1333.3333333333335,37C1444.4444444444446,37.416666666666664,1488.888888888889,-6.291666666666667,1600,-9C1711.111111111111,-11.708333333333332,1755.5555555555557,24.208333333333332,1866.6666666666667,24C1977.7777777777778,23.791666666666668,2022.2222222222224,-14.166666666666668,2133.3333333333335,-10C2244.4444444444443,-5.833333333333333,2292.3611111111113,-41.41666666666666,2400,44C2507.6388888888887,129.41666666666666,3254.1666666666665,221.66666666666669,2650,400C2045.8333333333335,578.3333333333333,156.25,795.8333333333334,-500,900" transform="matrix(1,0,0,1,0,100)" opacity="0.15"></path><path d="M-10,10C47.63888888888889,14.791666666666668,153.47222222222223,37.166666666666664,266.6666666666667,33C379.86111111111114,28.833333333333332,422.2222222222223,-7.5,533.3333333333334,-10C644.4444444444445,-12.5,688.8888888888889,21.208333333333332,800,21C911.1111111111111,20.791666666666668,955.5555555555557,-14.333333333333332,1066.6666666666667,-11C1177.7777777777778,-7.666666666666667,1222.2222222222224,36.583333333333336,1333.3333333333335,37C1444.4444444444446,37.416666666666664,1488.888888888889,-6.291666666666667,1600,-9C1711.111111111111,-11.708333333333332,1755.5555555555557,24.208333333333332,1866.6666666666667,24C1977.7777777777778,23.791666666666668,2022.2222222222224,-14.166666666666668,2133.3333333333335,-10C2244.4444444444443,-5.833333333333333,2292.3611111111113,-41.41666666666666,2400,44C2507.6388888888887,129.41666666666666,3254.1666666666665,221.66666666666669,2650,400C2045.8333333333335,578.3333333333333,156.25,795.8333333333334,-500,900" transform="matrix(1,0,0,1,0,150)" opacity="0.24"></path><path d="M-10,10C47.63888888888889,14.791666666666668,153.47222222222223,37.166666666666664,266.6666666666667,33C379.86111111111114,28.833333333333332,422.2222222222223,-7.5,533.3333333333334,-10C644.4444444444445,-12.5,688.8888888888889,21.208333333333332,800,21C911.1111111111111,20.791666666666668,955.5555555555557,-14.333333333333332,1066.6666666666667,-11C1177.7777777777778,-7.666666666666667,1222.2222222222224,36.583333333333336,1333.3333333333335,37C1444.4444444444446,37.416666666666664,1488.888888888889,-6.291666666666667,1600,-9C1711.111111111111,-11.708333333333332,1755.5555555555557,24.208333333333332,1866.6666666666667,24C1977.7777777777778,23.791666666666668,2022.2222222222224,-14.166666666666668,2133.3333333333335,-10C2244.4444444444443,-5.833333333333333,2292.3611111111113,-41.41666666666666,2400,44C2507.6388888888887,129.41666666666666,3254.1666666666665,221.66666666666669,2650,400C2045.8333333333335,578.3333333333333,156.25,795.8333333333334,-500,900" transform="matrix(1,0,0,1,0,200)" opacity="0.34"></path><path d="M-10,10C47.63888888888889,14.791666666666668,153.47222222222223,37.166666666666664,266.6666666666667,33C379.86111111111114,28.833333333333332,422.2222222222223,-7.5,533.3333333333334,-10C644.4444444444445,-12.5,688.8888888888889,21.208333333333332,800,21C911.1111111111111,20.791666666666668,955.5555555555557,-14.333333333333332,1066.6666666666667,-11C1177.7777777777778,-7.666666666666667,1222.2222222222224,36.583333333333336,1333.3333333333335,37C1444.4444444444446,37.416666666666664,1488.888888888889,-6.291666666666667,1600,-9C1711.111111111111,-11.708333333333332,1755.5555555555557,24.208333333333332,1866.6666666666667,24C1977.7777777777778,23.791666666666668,2022.2222222222224,-14.166666666666668,2133.3333333333335,-10C2244.4444444444443,-5.833333333333333,2292.3611111111113,-41.41666666666666,2400,44C2507.6388888888887,129.41666666666666,3254.1666666666665,221.66666666666669,2650,400C2045.8333333333335,578.3333333333333,156.25,795.8333333333334,-500,900" transform="matrix(1,0,0,1,0,250)" opacity="0.43"></path><path d="M-10,10C47.63888888888889,14.791666666666668,153.47222222222223,37.166666666666664,266.6666666666667,33C379.86111111111114,28.833333333333332,422.2222222222223,-7.5,533.3333333333334,-10C644.4444444444445,-12.5,688.8888888888889,21.208333333333332,800,21C911.1111111111111,20.791666666666668,955.5555555555557,-14.333333333333332,1066.6666666666667,-11C1177.7777777777778,-7.666666666666667,1222.2222222222224,36.583333333333336,1333.3333333333335,37C1444.4444444444446,37.416666666666664,1488.888888888889,-6.291666666666667,1600,-9C1711.111111111111,-11.708333333333332,1755.5555555555557,24.208333333333332,1866.6666666666667,24C1977.7777777777778,23.791666666666668,2022.2222222222224,-14.166666666666668,2133.3333333333335,-10C2244.4444444444443,-5.833333333333333,2292.3611111111113,-41.41666666666666,2400,44C2507.6388888888887,129.41666666666666,3254.1666666666665,221.66666666666669,2650,400C2045.8333333333335,578.3333333333333,156.25,795.8333333333334,-500,900" transform="matrix(1,0,0,1,0,300)" opacity="0.53"></path><path d="M-10,10C47.63888888888889,14.791666666666668,153.47222222222223,37.166666666666664,266.6666666666667,33C379.86111111111114,28.833333333333332,422.2222222222223,-7.5,533.3333333333334,-10C644.4444444444445,-12.5,688.8888888888889,21.208333333333332,800,21C911.1111111111111,20.791666666666668,955.5555555555557,-14.333333333333332,1066.6666666666667,-11C1177.7777777777778,-7.666666666666667,1222.2222222222224,36.583333333333336,1333.3333333333335,37C1444.4444444444446,37.416666666666664,1488.888888888889,-6.291666666666667,1600,-9C1711.111111111111,-11.708333333333332,1755.5555555555557,24.208333333333332,1866.6666666666667,24C1977.7777777777778,23.791666666666668,2022.2222222222224,-14.166666666666668,2133.3333333333335,-10C2244.4444444444443,-5.833333333333333,2292.3611111111113,-41.41666666666666,2400,44C2507.6388888888887,129.41666666666666,3254.1666666666665,221.66666666666669,2650,400C2045.8333333333335,578.3333333333333,156.25,795.8333333333334,-500,900" transform="matrix(1,0,0,1,0,350)" opacity="0.62"></path><path d="M-10,10C47.63888888888889,14.791666666666668,153.47222222222223,37.166666666666664,266.6666666666667,33C379.86111111111114,28.833333333333332,422.2222222222223,-7.5,533.3333333333334,-10C644.4444444444445,-12.5,688.8888888888889,21.208333333333332,800,21C911.1111111111111,20.791666666666668,955.5555555555557,-14.333333333333332,1066.6666666666667,-11C1177.7777777777778,-7.666666666666667,1222.2222222222224,36.583333333333336,1333.3333333333335,37C1444.4444444444446,37.416666666666664,1488.888888888889,-6.291666666666667,1600,-9C1711.111111111111,-11.708333333333332,1755.5555555555557,24.208333333333332,1866.6666666666667,24C1977.7777777777778,23.791666666666668,2022.2222222222224,-14.166666666666668,2133.3333333333335,-10C2244.4444444444443,-5.833333333333333,2292.3611111111113,-41.41666666666666,2400,44C2507.6388888888887,129.41666666666666,3254.1666666666665,221.66666666666669,2650,400C2045.8333333333335,578.3333333333333,156.25,795.8333333333334,-500,900" transform="matrix(1,0,0,1,0,400)" opacity="0.72"></path><path d="M-10,10C47.63888888888889,14.791666666666668,153.47222222222223,37.166666666666664,266.6666666666667,33C379.86111111111114,28.833333333333332,422.2222222222223,-7.5,533.3333333333334,-10C644.4444444444445,-12.5,688.8888888888889,21.208333333333332,800,21C911.1111111111111,20.791666666666668,955.5555555555557,-14.333333333333332,1066.6666666666667,-11C1177.7777777777778,-7.666666666666667,1222.2222222222224,36.583333333333336,1333.3333333333335,37C1444.4444444444446,37.416666666666664,1488.888888888889,-6.291666666666667,1600,-9C1711.111111111111,-11.708333333333332,1755.5555555555557,24.208333333333332,1866.6666666666667,24C1977.7777777777778,23.791666666666668,2022.2222222222224,-14.166666666666668,2133.3333333333335,-10C2244.4444444444443,-5.833333333333333,2292.3611111111113,-41.41666666666666,2400,44C2507.6388888888887,129.41666666666666,3254.1666666666665,221.66666666666669,2650,400C2045.8333333333335,578.3333333333333,156.25,795.8333333333334,-500,900" transform="matrix(1,0,0,1,0,450)" opacity="0.81"></path><path d="M-10,10C47.63888888888889,14.791666666666668,153.47222222222223,37.166666666666664,266.6666666666667,33C379.86111111111114,28.833333333333332,422.2222222222223,-7.5,533.3333333333334,-10C644.4444444444445,-12.5,688.8888888888889,21.208333333333332,800,21C911.1111111111111,20.791666666666668,955.5555555555557,-14.333333333333332,1066.6666666666667,-11C1177.7777777777778,-7.666666666666667,1222.2222222222224,36.583333333333336,1333.3333333333335,37C1444.4444444444446,37.416666666666664,1488.888888888889,-6.291666666666667,1600,-9C1711.111111111111,-11.708333333333332,1755.5555555555557,24.208333333333332,1866.6666666666667,24C1977.7777777777778,23.791666666666668,2022.2222222222224,-14.166666666666668,2133.3333333333335,-10C2244.4444444444443,-5.833333333333333,2292.3611111111113,-41.41666666666666,2400,44C2507.6388888888887,129.41666666666666,3254.1666666666665,221.66666666666669,2650,400C2045.8333333333335,578.3333333333333,156.25,795.8333333333334,-500,900" transform="matrix(1,0,0,1,0,500)" opacity="0.91"></path><path d="M-10,10C47.63888888888889,14.791666666666668,153.47222222222223,37.166666666666664,266.6666666666667,33C379.86111111111114,28.833333333333332,422.2222222222223,-7.5,533.3333333333334,-10C644.4444444444445,-12.5,688.8888888888889,21.208333333333332,800,21C911.1111111111111,20.791666666666668,955.5555555555557,-14.333333333333332,1066.6666666666667,-11C1177.7777777777778,-7.666666666666667,1222.2222222222224,36.583333333333336,1333.3333333333335,37C1444.4444444444446,37.416666666666664,1488.888888888889,-6.291666666666667,1600,-9C1711.111111111111,-11.708333333333332,1755.5555555555557,24.208333333333332,1866.6666666666667,24C1977.7777777777778,23.791666666666668,2022.2222222222224,-14.166666666666668,2133.3333333333335,-10C2244.4444444444443,-5.833333333333333,2292.3611111111113,-41.41666666666666,2400,44C2507.6388888888887,129.41666666666666,3254.1666666666665,221.66666666666669,2650,400C2045.8333333333335,578.3333333333333,156.25,795.8333333333334,-500,900" transform="matrix(1,0,0,1,0,550)" opacity="1.00"></path></g></svg>