<svg xmlns="http://www.w3.org/2000/svg" version="1.1" xmlns:xlink="http://www.w3.org/1999/xlink" xmlns:svgjs="http://svgjs.dev/svgjs" viewBox="0 0 2400 800"><defs><linearGradient x1="50%" y1="0%" x2="50%" y2="100%" id="sssurf-grad"><stop stop-color="hsla(90, 69%, 72%, 1.00)" stop-opacity="1" offset="0%"></stop><stop stop-color="hsla(167, 38%, 81%, 1.00)" stop-opacity="1" offset="100%"></stop></linearGradient></defs><g fill="url(#sssurf-grad)" transform="matrix(1,0,0,1,0,-105.301513671875)"><path d="M 0 427.6498646807414 Q 342.85714285714283 450 342.85714285714283 236.60304741942534 Q 685.7142857142857 450 685.7142857142857 289.5710836101192 Q 1028.5714285714284 450 1028.5714285714284 254.44491410048346 Q 1371.4285714285713 450 1371.4285714285713 370.6292940734585 Q 1714.2857142857142 450 1714.2857142857142 265.8466120157516 Q 2057.142857142857 450 2057.142857142857 413.19658397152534 Q 2400 450 2400 406.1121887981326 L 2400 800 L 0 800 L 0 295.3473520502745 Z" transform="matrix(1,0,0,1,0,34)" opacity="0.05"></path><path d="M 0 427.6498646807414 Q 342.85714285714283 450 342.85714285714283 236.60304741942534 Q 685.7142857142857 450 685.7142857142857 289.5710836101192 Q 1028.5714285714284 450 1028.5714285714284 254.44491410048346 Q 1371.4285714285713 450 1371.4285714285713 370.6292940734585 Q 1714.2857142857142 450 1714.2857142857142 265.8466120157516 Q 2057.142857142857 450 2057.142857142857 413.19658397152534 Q 2400 450 2400 406.1121887981326 L 2400 800 L 0 800 L 0 295.3473520502745 Z" transform="matrix(1,0,0,1,0,68)" opacity="0.16"></path><path d="M 0 427.6498646807414 Q 342.85714285714283 450 342.85714285714283 236.60304741942534 Q 685.7142857142857 450 685.7142857142857 289.5710836101192 Q 1028.5714285714284 450 1028.5714285714284 254.44491410048346 Q 1371.4285714285713 450 1371.4285714285713 370.6292940734585 Q 1714.2857142857142 450 1714.2857142857142 265.8466120157516 Q 2057.142857142857 450 2057.142857142857 413.19658397152534 Q 2400 450 2400 406.1121887981326 L 2400 800 L 0 800 L 0 295.3473520502745 Z" transform="matrix(1,0,0,1,0,102)" opacity="0.26"></path><path d="M 0 427.6498646807414 Q 342.85714285714283 450 342.85714285714283 236.60304741942534 Q 685.7142857142857 450 685.7142857142857 289.5710836101192 Q 1028.5714285714284 450 1028.5714285714284 254.44491410048346 Q 1371.4285714285713 450 1371.4285714285713 370.6292940734585 Q 1714.2857142857142 450 1714.2857142857142 265.8466120157516 Q 2057.142857142857 450 2057.142857142857 413.19658397152534 Q 2400 450 2400 406.1121887981326 L 2400 800 L 0 800 L 0 295.3473520502745 Z" transform="matrix(1,0,0,1,0,136)" opacity="0.37"></path><path d="M 0 427.6498646807414 Q 342.85714285714283 450 342.85714285714283 236.60304741942534 Q 685.7142857142857 450 685.7142857142857 289.5710836101192 Q 1028.5714285714284 450 1028.5714285714284 254.44491410048346 Q 1371.4285714285713 450 1371.4285714285713 370.6292940734585 Q 1714.2857142857142 450 1714.2857142857142 265.8466120157516 Q 2057.142857142857 450 2057.142857142857 413.19658397152534 Q 2400 450 2400 406.1121887981326 L 2400 800 L 0 800 L 0 295.3473520502745 Z" transform="matrix(1,0,0,1,0,170)" opacity="0.47"></path><path d="M 0 427.6498646807414 Q 342.85714285714283 450 342.85714285714283 236.60304741942534 Q 685.7142857142857 450 685.7142857142857 289.5710836101192 Q 1028.5714285714284 450 1028.5714285714284 254.44491410048346 Q 1371.4285714285713 450 1371.4285714285713 370.6292940734585 Q 1714.2857142857142 450 1714.2857142857142 265.8466120157516 Q 2057.142857142857 450 2057.142857142857 413.19658397152534 Q 2400 450 2400 406.1121887981326 L 2400 800 L 0 800 L 0 295.3473520502745 Z" transform="matrix(1,0,0,1,0,204)" opacity="0.58"></path><path d="M 0 427.6498646807414 Q 342.85714285714283 450 342.85714285714283 236.60304741942534 Q 685.7142857142857 450 685.7142857142857 289.5710836101192 Q 1028.5714285714284 450 1028.5714285714284 254.44491410048346 Q 1371.4285714285713 450 1371.4285714285713 370.6292940734585 Q 1714.2857142857142 450 1714.2857142857142 265.8466120157516 Q 2057.142857142857 450 2057.142857142857 413.19658397152534 Q 2400 450 2400 406.1121887981326 L 2400 800 L 0 800 L 0 295.3473520502745 Z" transform="matrix(1,0,0,1,0,238)" opacity="0.68"></path><path d="M 0 427.6498646807414 Q 342.85714285714283 450 342.85714285714283 236.60304741942534 Q 685.7142857142857 450 685.7142857142857 289.5710836101192 Q 1028.5714285714284 450 1028.5714285714284 254.44491410048346 Q 1371.4285714285713 450 1371.4285714285713 370.6292940734585 Q 1714.2857142857142 450 1714.2857142857142 265.8466120157516 Q 2057.142857142857 450 2057.142857142857 413.19658397152534 Q 2400 450 2400 406.1121887981326 L 2400 800 L 0 800 L 0 295.3473520502745 Z" transform="matrix(1,0,0,1,0,272)" opacity="0.79"></path><path d="M 0 427.6498646807414 Q 342.85714285714283 450 342.85714285714283 236.60304741942534 Q 685.7142857142857 450 685.7142857142857 289.5710836101192 Q 1028.5714285714284 450 1028.5714285714284 254.44491410048346 Q 1371.4285714285713 450 1371.4285714285713 370.6292940734585 Q 1714.2857142857142 450 1714.2857142857142 265.8466120157516 Q 2057.142857142857 450 2057.142857142857 413.19658397152534 Q 2400 450 2400 406.1121887981326 L 2400 800 L 0 800 L 0 295.3473520502745 Z" transform="matrix(1,0,0,1,0,306)" opacity="0.89"></path><path d="M 0 427.6498646807414 Q 342.85714285714283 450 342.85714285714283 236.60304741942534 Q 685.7142857142857 450 685.7142857142857 289.5710836101192 Q 1028.5714285714284 450 1028.5714285714284 254.44491410048346 Q 1371.4285714285713 450 1371.4285714285713 370.6292940734585 Q 1714.2857142857142 450 1714.2857142857142 265.8466120157516 Q 2057.142857142857 450 2057.142857142857 413.19658397152534 Q 2400 450 2400 406.1121887981326 L 2400 800 L 0 800 L 0 295.3473520502745 Z" transform="matrix(1,0,0,1,0,340)" opacity="1.00"></path></g></svg>